<svg xmlns="http://www.w3.org/2000/svg" xml:space="preserve" viewBox="0 0 1024 1024"><path d="M632 1025c-71.687561 0-143.375122 0-215.557922-.25708-4.337647-4.072998-7.988068-8.092163-13.501435-9.675842-3.191955-.916932-6.320678-2.111328-9.387848-3.395813-18.579406-7.780701-37.420959-14.879273-56.338928-21.781739-6.414886-2.340515-12.981323-4.330932-19.227508-7.056518-18.6232-8.126648-36.343659-18.074097-54.332093-27.47638-17.306106-9.045654-29.653534-22.32196-37.624893-40.452697-5.790542-13.170594-13.054214-25.963257-24.7957-35.168702-5.865616-4.598754-10.253815-10.356994-14.68277-16.214538-3.959945-5.237061-5.764145-11.71875-9.854583-16.755005-11.715073-14.423828-13.417878-31.388794-13.02118-48.965027.300156-13.298584 1.349976-26.59436.106675-39.897461-.20723-2.217407-.678467-4.411438-2.514344-5.801147-7.882797-5.966919-10.353317-14.764282-12.480819-23.707031-1.154831-4.854126-1.308045-10.038392-3.690003-14.482789-4.10762-7.664184-4.867721-16.070373-4.674484-24.292114.210861-8.971618-.03746-18.002991.919723-26.947754.770234-7.197632.753449-14.356933 3.518876-21.498962 1.880615-4.856873 1.860519-11.82312-.255127-16.519104-2.881409-6.395691-5.072937-12.97638-7.577744-19.46814-6.333984-16.415893-9.614319-33.553345-12.125839-50.89331-.945564-6.52826-.5998-12.905457.391212-19.377869.981873-6.412903 2.441033-12.97583 1.953453-19.339783-.782119-10.208435.965668-19.941711 3.296616-29.643066 1.744583-7.260864.878601-14.035614-2.926659-20.191498-4.20195-6.797607-6.724395-14.155823-8.436546-21.800812-2.256561-10.075958-4.083099-20.248596-6.068939-30.384674-1.999085-10.203674-2.095696-20.443329-1.617836-30.839142.499946-10.876098 3.101059-21.438781 3.676437-32.258545 1.044167-19.635101 2.590546-39.225097 7.216683-58.397003 1.798744-7.454406.875404-15.656982 4.61219-22.403198 3.745613-6.762176 4.245872-13.835892 5.109749-21.09491.727157-6.110412-.467896-12.550247 1.896942-18.316253 6.369522-15.53035 11.823166-31.437836 19.339783-46.507401 2.695205-5.403442 6.753448-9.973221 9.168258-15.398697 3.316086-7.450348 8.335419-13.524978 13.317093-19.800048 6.125839-7.716248 14.119446-13.653946 19.777329-21.800309 6.895141-9.927757 14.963012-18.791946 25.993789-24.28743 6.633988-3.305007 11.439972-8.47863 15.823166-14.176803 2.941925-3.824532 5.519272-7.941956 8.601441-11.643845 9.187576-11.03498 17.311218-22.729122 24.493133-35.206234 5.093018-8.848091 12.5206-15.441688 23.48877-16.82436 11.440735-1.442245 22.576843-.683902 33.546539 2.986784 9.701569 3.246331 19.774902 5.446318 29.942627 4.474829 18.09787-1.729196 35.716858-6.313181 53.348511-10.624681 3.93515-.962275 7.140991-3.044915 9.628143-6.586588-.90741-.507772-1.466339-.846355-2.047638-1.140733-1.432526-.725458-3.537415-.96405-3.302948-3.150658.203278-1.895933 1.995667-2.535093 3.572601-3.10364 2.854645-1.029224 5.842743-1.516165 8.849549-1.330865 15.911133.98056 30.894226 4.334913 43.108734 15.744025 4.118347 3.846779 9.259735 6.178345 14.986206 7.506519 11.673981 2.707629 23.237762.362364 34.832825-.016529 10.307434-.336824 20.598449-2.341263 30.918396-.816354 21.584777 3.189436 43.193298 5.783275 65.040466 6.627697 36.058411 1.393711 68.567322 14.024578 98.993713 32.713092 7.240479 4.447258 14.161377 9.542755 21.7594 13.255181 20.143676 9.842346 36.999572 24.246826 54.440551 37.888267 13.805909 10.79831 24.893982 24.597077 38.928223 35.129883 4.44989 3.339706 8.509583 7.14978 11.181763 11.985107 7.316711 13.239899 21.164184 21.684601 26.497253 36.355515.37146 1.022064 1.537537 1.733322 2.238892 2.661087 3.696655 4.889893 8.986145 8.677414 10.963867 14.746292 4.062561 12.466904 13.300537 22.278824 17.557312 34.638382.463928 1.34697 1.670532 2.466431 2.629456 3.61023 9.304077 11.09674 15.264282 23.760589 16.998291 38.141906 1.559448 12.933838.597351 25.944947-.086914 38.900544-.969056 18.346496-1.372193 36.625579 2.366699 54.765075 2.704895 13.122803 4.27948 26.514221 2.781555 39.767273-3.235901 28.629639-4.548706 57.497498-9.548096 85.898468-4.947265 28.105042-8.549194 56.282715-9.476684 84.836853-.437256 13.461426-1.764222 26.895081-3.802613 40.277466-4.113403 27.005676-8.224548 54.040466-11.115966 81.193176-1.829224 17.178406-1.116517 34.598755-3.372498 51.825135-.797729 6.090759-2.208496 11.751831-5.489868 16.919799-4.193848 6.605286-8.753235 13.006775-12.533203 19.840088-5.393982 9.750977-10.188294 19.832398-15.307129 29.737366-3.283386 6.353394-6.085266 13.067322-10.161133 18.877319-9.861145 14.056824-20.728699 27.291993-33.882812 38.557556-7.197144 6.163819-14.02472 12.817566-20.543824 19.700379-8.494629 8.968689-17.222412 17.649536-27.292114 24.816894-18.043213 12.842591-36.602844 25.019776-53.351868 39.552186-7.326294 6.35675-15.565124 11.396362-23.847412 15.81488-7.424438 3.960815-16.089294 5.979614-23.953491 9.556213-7.572998 3.444214-15.367432 6.420594-22.825378 10.088745-2.839722 1.396668-6.515198 3.173462-5.178101 7.77887M385.84259 205.378662c-89.558532 63.199677-125.065948 149.269806-108.356109 257.153015 6.764404 43.672821 48.068268 121.314087 66.282348 125.830445 1.38852-1.356507.873108-3.125061.887787-4.720643.081177-8.83258-.045959-17.668823.161347-26.497619.090973-3.875183-1.049103-7.07251-3.21872-10.218079-6.533569-9.472229-12.589813-19.245483-17.296692-29.781738-.818084-1.831177-2.238006-3.678589-.929443-6.622406 3.632355 3.272736 7.199615 5.986908 12.081695 5.510284 5.00586-.488769 6.960541-3.476196 5.265656-8.189117-.901459-2.506744-1.650024-5.075256-2.672028-7.530792-12.739807-30.610718-18.289672-62.382141-16.547729-95.572937 1.615875-30.789337 9.809082-59.616089 23.844818-86.91507 1.924957-3.743957 3.339417-7.631012 3.490021-11.865967.061981-1.742645.766479-4.010101-1.435791-4.850525-1.989319-.759094-2.835175 1.295746-3.853241 2.515381-3.780823 4.529267-9.386261 4.715424-14.32724 7.421326-.831909-4.127258.799408-6.375763 2.091186-8.607941 12.888489-22.270996 28.691468-42.349365 48.733002-58.432327 52.324524-41.989471 111.845734-58.966324 178.458923-48.351212 37.07898 5.908692 70.420777 20.777802 99.61908 44.574997 1.922729 1.567078 4.43158 2.973694 4.200928 6.130982-1.633118.770248-2.876892.065185-4.125611-.248016-3.13153-.785401-6.139953-.663895-8.108093 2.189254-2.004883 2.90622-.083557 5.369812 1.564331 7.706391 3.55127 5.035308 7.232727 9.950225 11.473938 14.459564 19.025025 20.228058 33.74231 43.168854 44.549011 68.82373 4.617005 10.960724 8.482972 22.358338 14.966553 32.505249 1.187012 1.857727 2.224548 3.763794 4.469483 4.466278 1.969909.616394 4.078063.419068 4.299987-1.924957.327576-3.460358.309388-7.429748-3.825195-8.743225-3.574158-1.135406-3.560852-2.850555-2.114502-5.550232 2.686523-5.014374 2.042419-9.655884-1.832764-13.76477-2.40271-2.547547-3.558471-5.475464-3.89154-8.951996-.716065-7.473877-2.864502-14.36496-8.93689-19.418518-2.280273-1.897675-3.341492-4.432007-4.025757-7.284149-1.748779-7.288697-3.506225-14.562409-8.298278-20.698456-1.297059-1.660828-2.688294-3.804108-1.762024-6.31836 2.171814-.171325 2.836609 1.423401 3.624755 2.558503 5.414124 7.796539 10.979126 15.500183 15.309205 23.992645 19.180664 37.618042 27.999023 77.481781 25.577392 119.680054-.839111 14.623474-2.947876 29.119842-7.105835 43.222381-1.426025 4.836701-2.836426 5.22641-7.088806 2.540161-2.314087-1.461792-4.983887-3.271362-7.227051-.837219-3.678894 3.991943-7.554748 8.12262-9.965149 12.89325-4.344116 8.597381-8.24884 17.51947-11.255371 26.661712-3.148865 9.574951-1.662781 19.022278 4.288819 28.393189-5.116883 5.864135-4.774414 13.756408-4.427185 21.610595.344421 7.791382-.852356 15.700013.729187 23.431031 3.472473-.125489 4.649047-2.153748 6.042419-3.694886 8.837891-9.774963 17.094604-19.992004 24.092102-31.208191 34.336914-55.038024 47.888611-114.677703 36.919128-178.72763-11.889099-69.419251-46.840881-125.06929-104.987976-165.395508-51.548523-35.749985-108.982971-48.387283-170.854156-41.068436-37.389649 4.422882-72.188568 16.828644-104.553925 37.720505m-55.591156 542.921204c1.873078 2.755188 3.725769 5.524475 5.622284 8.263427 27.225556 39.319214 61.478546 70.342408 105.782624 89.455018 36.829834 15.888183 75.023773 21.983642 114.662994 14.238037 44.385437-8.673096 82.535522-29.736145 114.603088-61.376892 37.122315-36.628235 62.105103-81.314881 83.020996-128.508423 2.730957-6.162049 1.509339-8.743408-4.961059-10.944092-12.133972-4.126709-24.361023-7.981323-36.568482-11.889404-5.261718-1.684571-6.299621-1.013245-6.905334 4.755188-2.934815 27.949585-12.589111 53.838623-24.170349 79.138366-.734192 1.603821-1.218933 3.714478-3.382324 3.983887-2.636536.328308-1.297547-3.055847-3.421997-3.875549-1.069336 2.461853-3.707886 4.030212-3.757081 7.076904 2.009461.675415 3.322449-2.224609 4.900513-.467834 1.632874 1.817871-.03833 3.481567-.849243 4.982605-4.685364 8.672851-10.107361 16.86145-16.728272 24.190734-1.440063 1.594117-2.713928 3.681702-4.990173 3.992432-2.953064-6.952942-.306274-11.151672 5.458069-14.654785 4.881592-2.966614 9.208069-10.908264 9.214905-15.000977-.273316.171082-.633118.279846-.807617.522034-12.029969 16.701172-26.891236 30.341248-44.307007 41.277344-4.057007 2.547668-4.241028 6.083679-.303406 9.882995 2.698303 2.603516 2.228088 4.619934-.175964 6.644776-2.41272 2.031921-4.933838 3.983398-7.606446 5.651123-37.517761 23.411316-78.065979 32.863586-121.8143 24.718323-50.879547-9.47284-91.956879-34.88855-121.784271-77.662476-20.979706-30.085938-29.377564-64.096191-31.280579-100.141541-.360199-6.822692-1.504303-7.641418-7.941528-5.621704-11.432221 3.586975-22.835389 7.266358-34.268433 10.850647-11.580261 3.630371-12.385376 5.355164-7.600983 16.774659.193177.460998.366822.930908.577637 1.383666 11.542816 24.791016 24.104614 49.022889 39.781738 72.361512m163.948792-445.765595c21.256012-5.107635 42.331756-4.249328 62.993255 2.70633 50.470398 16.990905 82.662049 70.318023 82.277588 118.222534-.421081 52.48352-.095947 104.973022-.095215 157.459961 0 1.499633.017029 2.999206.011536 4.49884-.011841 3.254456 1.351563 4.464905 4.718384 3.73114 6.035828-1.315491 11.508667.470886 16.646362 3.609558 1.377197.84137 2.534363 2.256958 4.528931 1.896729 2.059509-1.805969 1.319641-4.294983 1.32135-6.510498.044312-56.985718.067566-113.971466-.012207-170.957093-.006958-4.972106-.341492-10.016265-1.215759-14.903167-6.958435-38.891876-24.216919-72.277558-54.949829-97.561127-29.898865-24.597443-64.376404-36.567993-103.376007-32.415588-38.208252 4.068206-69.748169 21.234497-94.189271 50.892486-22.717376 27.566437-36.272277 59.496491-37.110656 95.045593-1.347107 57.120423-.352448 114.296174-.321381 171.448578.000977 1.765992-.44046 3.725586 1.292572 5.067627 1.796845.462036 2.759583-.914001 3.959046-1.725952 4.708587-3.187561 9.878204-4.690246 15.574371-4.34729 6.393188.38501 6.400085.374146 6.400055-6.228638-.000092-50.320739.064514-100.641601-.051636-150.962036-.029358-12.716552.858154-25.327026 4.182343-37.577972 12.457794-45.912201 39.413391-78.225769 87.416168-91.390015m-56.206299 178.717316c-2.674225 8.840362-3.169739 18.010437-3.541504 27.112274-1.056274 25.862763 3.191925 51.029755 11.228638 75.548004 11.489868 35.053101 33.468048 60.134033 69.199615 71.978577 4.11023 1.362488 7.871094 1.476929 12.074402.013733 29.613037-10.308716 50.896301-29.549439 63.69104-58.24823 9.047302-20.293396 13.978455-41.651795 15.738465-63.630676 1.018737-12.723572 1.280761-25.637269-.956604-38.359711-.374939-2.131714-.207764-5.356476-3.035035-5.74585-2.999939-.413116-3.311584 2.79718-4.108093 4.839386-2.789734 7.152344-5.418884 14.476013-10.370605 20.400574-6.812561 8.151001-10.817383 17.230774-12.779358 27.688599-1.951294 10.401306-10.825257 16.617675-21.42041 16.547912-8.391663-.055176-15.383362-4.174866-22.287537-8.078125-7.402222-4.184814-14.246887-4.391784-21.59436-.051147-5.433716 3.210022-11.13266 6.03479-17.363587 7.523864-11.275177 2.694703-22.645172-2.117919-25.024841-12.484558-2.97345-12.953491-7.894135-24.574768-16.167786-34.865478-.306061-.380737-.4422-.893768-.688171-1.327789-4.568665-8.061432-7.028595-16.844117-9.074555-25.804657-.320282-1.402802.403595-4.650544-3.519714-3.056702M501.811768 753.2771c4.309265-1.764954 8.83255-3.144654 12.874878-5.390198 5.346313-2.96991 5.135498-7.556763.012695-10.779175-2.622986-1.649902-5.591431-2.117676-8.499634-2.753418-17.777893-3.886536-35.090851-9.20459-51.475983-17.190491-25.949615-12.647583-42.80191-32.678833-49.16275-61.160705-2.006836-8.98584-2.947204-18.036194-2.990662-27.230835-.02243-4.742249-3.652709-9.134094-8.093627-10.177612-4.855896-1.141175-8.474152.857116-11.021729 4.916198-2.225464 3.545838-4.194397 7.242127-4.214172 11.590515-.036286 7.969117-.468293 15.904725.469116 23.904419 3.281372 28.003296 17.039368 50.100281 38.129822 67.913941 20.076843 16.957519 44.008758 25.892456 69.272857 31.71875 3.105561.716186 6.05069 1.290039 8.289612-2.195252 1.151795-1.792907 3.625214-2.241516 6.409577-3.166137m105.451416-38.52179c-8.434449 9.260132-18.413147 16.218384-30.119385 20.810181-6.532837 2.5625-7.463257 4.665832-6.413696 11.36322.179931 1.148254.188598 2.322388.334167 3.477295 1.228943 9.75238-2.262085 18.67688-4.892151 27.744385-.466125 1.606933-1.388306 3.163391.171021 4.602966 1.300232 1.200317 2.744201.729736 4.212097.218567 3.597595-1.252747 7.289184-2.134278 10.539612-4.366821 23.9906-16.478211 44.84729-36.104676 60.659057-60.701539 10.995117-17.104003 19.059571-35.399475 21.227173-55.90802.712036-6.736572-2.18689-13.435119-.049805-20.193176.492127-1.556335.425904-3.29364.582886-4.950744.572815-6.046082-1.606201-10.76709-5.373535-11.677186-4.668457-1.127868-9.307129 2.167847-11.471802 8.192811-1.356262 3.774841-2.207641 7.667724-2.735046 11.646301-.52771 3.980713-1.392761 7.896301-3.539246 11.364929-3.433716 5.548828-5.562256 11.691467-8.082763 17.647522-6.193482 14.635132-13.328797 28.670837-25.048584 40.729309m-67.215882-358.203827c2.22699-3.115478 4.663697-6.104858 6.631165-9.376343 2.869629-4.771301 1.941772-7.203613-3.374878-9.089477-13.22638-4.691528-26.857483-5.689026-40.275421-1.787964-37.920014 11.02478-58.266175 37.675293-65.486573 75.492676-.32138 1.683136-.95465 3.98291 1.011567 5.027466 2.127868 1.130371 3.331237-1.016205 4.447052-2.297303 4.943267-5.675689 10.261169-10.91809 16.393829-15.319153 13.304657-9.547973 28.345551-15.361846 43.74176-20.411926 13.770874-4.516907 26.742798-10.357147 36.911499-22.237976m65.567444 63.89859c-1.314819-18.509491-8.401611-34.749969-19.405517-49.462219-1.806275-2.415009-4.052186-3.43927-6.956666-2.385437-4.290649 1.556702-8.782897 8.535248-8.10852 13.152527 2.517212 17.233764 11.068665 31.511413 22.289368 44.388611 1.998596 2.293701 4.920105 3.157104 7.746154 2.096283 2.956727-1.109925 4.968628-3.357605 4.435181-7.789765z"/></svg>