<svg version="1.1" id="Layer_1" xmlns="http://www.w3.org/2000/svg" xmlns:xlink="http://www.w3.org/1999/xlink" x="0px" y="0px"
	 width="100%" viewBox="0 0 1024 1024" enable-background="new 0 0 1024 1024" xml:space="preserve">
<path fill="#000000" opacity="1.000000" stroke="none" 
	d="
M500.914337,196.673340 
	C502.399567,196.672806 503.412292,196.568787 504.397186,196.690262 
	C508.451202,197.190186 510.072632,195.649017 509.874023,191.393524 
	C509.571442,184.908432 509.779205,178.398285 509.817291,171.899063 
	C509.835785,168.741028 509.330444,165.560364 514.411438,165.522873 
	C519.333252,165.486572 519.213379,168.311340 519.190491,171.677551 
	C519.135376,179.795319 519.172607,187.913712 519.172607,196.678986 
	C525.803284,196.678986 532.092529,196.520920 538.368225,196.744629 
	C541.582825,196.859222 546.311829,194.876221 546.166565,201.262177 
	C546.043152,206.688873 545.320618,207.324081 538.006226,207.295593 
	C533.173462,207.276764 528.337646,207.325775 523.509216,207.164612 
	C520.290710,207.057205 519.044495,208.412109 519.066284,211.594879 
	C519.173706,227.259186 519.203613,242.924255 519.182373,258.588959 
	C519.178711,261.279053 520.401306,263.371307 521.776306,265.469757 
	C543.780945,299.052399 565.796997,332.627563 587.774048,366.228241 
	C589.647522,369.092621 591.985718,371.772217 592.560791,375.580902 
	C589.871826,376.860199 587.169373,376.435089 584.626221,376.260040 
	C580.528870,375.977997 579.115051,377.460846 579.143433,381.643646 
	C579.304260,405.307037 579.234497,428.972015 579.223206,452.636475 
	C579.217285,465.135315 579.413940,477.641724 579.027771,490.129486 
	C578.863403,495.447479 580.687622,498.742371 585.106812,501.567566 
	C608.685852,516.641541 632.131470,531.924438 655.608643,547.157532 
	C669.719482,556.313293 683.806641,565.505615 697.896423,574.693970 
	C699.568237,575.784241 701.182007,576.862854 701.721436,579.065735 
	C702.948547,584.077820 701.395325,586.268066 696.273499,586.279480 
	C686.759460,586.300659 687.340942,585.276794 687.347656,595.123779 
	C687.371094,629.620605 687.382446,664.117432 687.424438,698.614258 
	C687.427063,700.737732 687.074402,702.972351 688.542603,704.861938 
	C692.027771,702.738892 712.543518,671.645264 714.121277,665.967590 
	C709.711304,664.308472 704.883850,666.230103 699.877380,664.436707 
	C701.850037,657.743286 705.830688,652.213135 709.024414,646.288818 
	C712.147095,640.496216 716.390564,635.252075 718.275024,628.902039 
	C715.763916,626.209167 712.474121,628.015686 709.417542,626.414551 
	C713.251587,614.660889 720.933594,604.797241 725.430725,593.378784 
	C722.194214,591.110657 718.304626,593.400574 714.351929,590.905396 
	C724.545532,566.086792 734.026550,540.827576 742.731079,515.278687 
	C743.334351,515.255981 743.937622,515.233337 744.540894,515.210632 
	C754.077515,540.548157 763.614197,565.885681 773.217407,591.400024 
	C768.570435,593.157593 764.578003,591.503357 760.307312,593.227417 
	C769.676025,613.432312 778.932312,633.394836 788.264404,653.520813 
	C783.507202,655.199768 779.084717,653.185791 774.878418,655.596619 
	C779.507812,666.666199 787.704529,675.585449 791.980469,686.866577 
	C789.432800,687.857971 787.109802,687.429565 784.854980,687.487671 
	C783.031372,687.534790 780.995544,687.083801 779.939697,689.056885 
	C778.882141,691.033142 780.443237,692.559387 781.372131,694.046509 
	C787.285522,703.513794 793.305115,712.914795 799.197693,722.394897 
	C800.126709,723.889465 801.512634,725.279114 801.374451,727.642883 
	C798.581909,729.240112 794.752441,727.187256 791.929199,729.841675 
	C792.755615,733.370850 795.046875,735.908630 797.175293,738.361450 
	C799.636597,738.236755 800.222961,736.483154 800.979919,735.101196 
	C804.978760,727.799744 808.928406,720.470642 812.816101,713.109314 
	C815.492188,708.042114 815.010254,707.353760 809.055908,707.171448 
	C807.585144,707.126465 806.117065,706.996826 803.613342,706.842346 
	C808.184387,693.395264 816.940369,682.660461 822.164856,670.127014 
	C818.863525,668.502930 815.300598,670.266235 811.853088,668.401978 
	C815.608704,657.245422 822.362976,647.391968 826.427368,636.376892 
	C823.592651,634.288879 820.465454,636.159729 817.912720,634.704895 
	C816.852356,632.942322 818.200684,631.490967 818.740234,630.067810 
	C826.000977,610.914978 832.343628,591.447998 838.768433,572.008301 
	C839.222168,570.635437 839.362732,568.794189 841.241272,568.659729 
	C843.207581,568.519043 843.533081,570.377014 843.969360,571.726624 
	C850.320862,591.373596 857.309143,610.797241 864.361877,630.199036 
	C864.863220,631.578308 865.667236,632.951782 864.956360,634.647278 
	C862.713989,636.219360 859.788025,634.571228 856.881958,636.091553 
	C861.312378,646.117188 865.715698,656.081543 869.921204,665.598328 
	C868.842651,667.866821 866.822327,667.148438 865.665161,668.299927 
	C869.470642,678.130249 876.332336,686.352112 880.114441,696.552917 
	C875.275757,698.239441 870.525696,696.546021 865.022766,698.024475 
	C874.159668,712.915405 883.038635,727.385803 892.203003,742.321411 
	C886.845764,744.235657 882.119873,742.476807 876.919128,743.848328 
	C884.402344,755.174011 891.744690,766.286438 899.691589,778.313843 
	C894.688721,778.313843 890.973145,778.313843 887.096130,778.313843 
	C889.040466,784.134277 889.732056,784.752747 895.163330,784.621399 
	C903.320129,784.424133 911.472107,784.035400 919.627686,783.776917 
	C921.788574,783.708435 924.003296,783.542725 926.108337,783.909363 
	C929.516602,784.502991 932.251648,786.426147 931.948059,790.203979 
	C931.671875,793.641968 929.074036,795.325500 925.661133,795.419312 
	C922.665894,795.501770 919.666138,795.411926 916.668335,795.411926 
	C652.023376,795.409546 387.378357,795.406067 122.733368,795.427490 
	C118.073448,795.427856 113.414406,795.768372 108.753212,795.870728 
	C106.760345,795.914490 104.743324,795.906128 102.772118,795.651611 
	C99.526390,795.232544 96.802650,793.751526 96.862419,790.090881 
	C96.919525,786.592773 99.264153,784.756958 102.710846,784.482056 
	C112.688965,783.686279 122.688896,783.550842 132.650742,784.443115 
	C136.690262,784.804993 139.499130,784.002502 140.985458,779.688416 
	C137.719040,777.416626 133.863312,779.146484 129.703461,778.144165 
	C135.473999,765.901489 145.031815,756.335754 150.856277,744.075378 
	C145.902328,742.508179 141.144028,743.989380 135.909149,742.717590 
	C143.986267,727.047913 154.702271,713.605957 162.768982,698.112244 
	C157.505859,696.450928 152.572144,698.233887 147.406906,696.672485 
	C151.075577,686.948730 157.560593,678.971069 161.590454,670.300903 
	C161.217682,667.578552 158.366989,668.722107 157.678314,666.301331 
	C161.037689,656.218079 167.318634,646.864563 171.109467,636.416626 
	C168.528564,634.400391 165.568634,636.171570 162.363403,634.311768 
	C170.072159,612.399353 177.840485,590.317627 185.690414,568.003906 
	C188.993576,570.416992 209.643112,626.927063 210.409622,634.368225 
	C208.023895,636.335693 204.877151,634.430664 201.845169,636.067505 
	C206.818604,646.784668 211.805481,657.530823 216.767471,668.223328 
	C213.194611,670.322876 209.736008,668.263428 206.349579,670.420349 
	C211.805405,682.625610 219.510925,693.732849 224.543320,706.389221 
	C220.695892,707.889832 216.852341,704.946228 213.126617,707.891785 
	C218.714203,718.270630 224.353973,728.746460 230.155273,739.522278 
	C234.115311,737.097473 235.505630,733.554504 237.436798,730.240112 
	C235.049164,726.819824 230.892273,729.553894 227.437042,726.751343 
	C235.008621,714.352844 242.644745,701.848633 250.841705,688.426086 
	C245.547165,688.190857 241.335831,688.003784 236.313965,687.780701 
	C241.089676,676.118469 248.964249,666.936646 254.279495,656.055847 
	C250.049133,653.623596 245.572220,654.901184 240.489563,654.002441 
	C248.817169,633.044861 260.476135,614.036926 268.493439,593.189514 
	C264.648895,591.496399 260.786163,593.170410 256.221710,591.188293 
	C265.685272,565.799255 275.133911,540.450256 284.582550,515.101257 
	C285.130249,515.113098 285.677948,515.124939 286.225647,515.136780 
	C295.547394,540.606689 304.598877,566.177673 315.039124,591.124268 
	C311.084686,593.242920 307.644287,591.324036 304.070374,593.535095 
	C308.500458,604.548523 315.220947,614.666443 319.159973,625.951660 
	C316.381714,628.017151 313.104462,626.027344 310.259857,628.394775 
	C315.806213,640.648376 324.141296,651.569336 329.359100,664.460144 
	C324.389771,666.118774 319.837402,664.691772 314.163635,665.817688 
	C322.852203,679.516113 331.210999,692.694641 339.787415,706.216248 
	C341.901367,704.398865 341.648254,702.512268 341.649841,700.797913 
	C341.683899,664.467529 341.648102,628.137085 341.754822,591.807007 
	C341.766754,587.746765 340.423920,585.821899 336.247925,586.320557 
	C335.590912,586.399048 334.891602,586.441895 334.253876,586.305115 
	C332.039673,585.830383 328.657166,587.666870 327.934906,584.187561 
	C327.207245,580.682190 327.084656,577.284363 331.133667,574.668030 
	C363.314789,553.873291 395.350159,532.852905 427.415924,511.879913 
	C433.829071,507.685303 440.111908,503.287628 446.590179,499.197968 
	C449.799042,497.172302 450.793976,494.582031 450.784149,490.874084 
	C450.690002,455.377350 450.763794,419.880188 450.756958,384.383148 
	C450.755432,376.397797 450.696716,376.426361 442.834534,376.313049 
	C441.064789,376.287567 439.172424,376.780670 437.254456,375.308289 
	C438.487762,370.451935 441.672821,366.529999 444.386597,362.480377 
	C465.719666,330.645935 486.472229,298.436127 507.175812,266.192047 
	C509.256439,262.951660 510.090210,259.927917 509.992462,256.019714 
	C509.634308,241.695908 509.645416,227.356155 509.875916,213.028168 
	C509.950928,208.362350 508.356628,206.858063 503.824127,207.138214 
	C498.511475,207.466583 493.159851,207.101685 487.831268,207.253296 
	C482.093170,207.416565 483.980042,203.066299 483.511536,200.182587 
	C482.923340,196.562180 485.474457,196.655212 487.931549,196.672943 
	C492.097137,196.703003 496.263184,196.676331 500.914337,196.673340 
M547.325928,687.725342 
	C547.333862,717.213745 547.339294,746.702087 547.351379,776.190491 
	C547.354004,782.656555 547.364807,782.659424 554.040588,782.664307 
	C558.039062,782.667236 562.067505,782.350708 566.028259,782.735596 
	C570.863892,783.205566 571.868652,781.096985 571.865112,776.699829 
	C571.764771,653.080811 571.759399,529.461792 571.824097,405.842773 
	C571.826111,401.886566 570.766357,398.955780 567.802185,396.207123 
	C552.150208,381.693176 535.180481,368.771820 518.801025,355.137756 
	C515.714844,352.568787 513.566772,352.783661 510.647797,355.199219 
	C496.279022,367.090088 481.957336,379.049377 467.274109,390.543884 
	C459.792999,396.400269 456.934448,403.266205 457.187469,412.824554 
	C457.976288,442.621674 457.979309,472.431305 457.570557,502.253143 
	C457.068634,538.876038 457.873566,575.515320 457.902283,612.147644 
	C457.921234,636.295349 457.500458,660.442993 457.401306,684.591248 
	C457.315918,705.396240 457.404907,726.201843 457.421112,747.007202 
	C457.428741,756.836426 457.467865,766.665649 457.449646,776.494812 
	C457.441437,780.918518 459.016205,783.296753 463.989166,782.742859 
	C467.610077,782.339539 471.311035,782.652832 474.976318,782.650574 
	C482.640198,782.645813 482.652649,782.646912 482.655670,774.850586 
	C482.667267,745.195251 482.538818,715.539062 482.717590,685.884766 
	C482.861816,661.958923 508.396240,646.024963 529.178467,657.002197 
	C540.898376,663.192749 546.196228,673.853760 547.325928,687.725342 
M389.611481,576.164978 
	C377.554443,584.199463 365.590729,592.379944 353.385834,600.183167 
	C349.520935,602.654236 348.227570,605.503906 348.242340,609.998840 
	C348.387543,654.152527 348.325928,698.306824 348.326538,742.460999 
	C348.326721,754.290955 348.413208,766.121704 348.298096,777.950439 
	C348.265198,781.327820 349.378693,782.991882 352.909943,782.669678 
	C354.231689,782.549011 355.589630,782.523499 356.904053,782.680603 
	C360.882385,783.156067 362.237701,781.340759 362.123871,777.509888 
	C361.906250,770.183655 361.967834,762.849304 361.890045,755.518555 
	C361.876099,754.201660 362.153137,752.550598 360.915039,751.807617 
	C357.834717,749.959045 359.256165,747.906006 360.451935,745.914307 
	C361.636871,743.940674 363.035156,742.095093 365.061646,739.141418 
	C366.899261,744.090454 373.362183,746.415588 368.583038,752.572815 
	C367.986786,753.341003 368.259125,754.840027 368.254395,756.000916 
	C368.233429,761.165771 368.231110,766.331055 368.271698,771.495789 
	C368.367706,783.719055 368.373749,783.648926 380.842377,782.694031 
	C383.603149,782.482666 384.717438,781.400208 384.674622,778.703613 
	C384.603271,774.206116 384.458099,769.693481 384.746185,765.213074 
	C384.904449,762.751709 382.993958,758.499939 387.289948,758.410706 
	C392.134857,758.310059 390.206879,762.871033 390.142853,765.384399 
	C390.034821,769.626831 391.641541,770.814331 395.701691,770.724854 
	C406.193695,770.493652 416.694092,770.644287 427.191132,770.638672 
	C436.082001,770.633911 436.097168,770.632874 436.827850,761.869751 
	C436.971588,760.145874 436.968292,758.361328 439.354279,758.378784 
	C441.740204,758.396240 442.397461,759.923279 442.380524,762.041016 
	C442.340546,767.039124 442.360962,772.037659 442.349701,777.036011 
	C442.343292,779.879089 441.812195,782.759216 446.373474,782.750916 
	C450.690094,782.743042 450.682220,780.214722 450.681915,777.174255 
	C450.673889,698.696777 450.693848,620.219360 450.662018,541.741882 
	C450.661377,540.217285 451.349701,538.400391 449.282288,536.853088 
	C429.194458,549.078796 410.021820,562.913940 389.611481,576.164978 
M680.847107,772.426880 
	C680.798035,717.769592 680.723267,663.112366 680.760437,608.455139 
	C680.762817,604.978699 679.950012,602.636230 676.847473,600.615479 
	C649.209595,582.614441 621.699463,564.417358 594.094116,546.365967 
	C589.563477,543.403320 585.158630,540.150208 579.167053,537.627808 
	C579.167053,540.394348 579.167847,542.488098 579.166931,544.581909 
	C579.156616,568.077393 579.122742,591.572815 579.140259,615.068298 
	C579.180420,669.058228 579.237549,723.048096 579.326965,777.037964 
	C579.331055,779.496704 578.304871,782.675354 582.772827,782.695068 
	C587.362244,782.715271 586.605591,779.505249 586.641846,776.767334 
	C586.705872,771.935608 586.673218,767.102722 586.688782,762.270325 
	C586.694458,760.495178 586.906616,758.901855 589.257874,758.813171 
	C591.829529,758.716187 592.279480,760.337830 592.299133,762.373901 
	C592.308777,763.373657 592.446350,764.389038 592.318176,765.370178 
	C591.767212,769.588318 593.657959,770.804077 597.735474,770.720703 
	C608.728943,770.495789 619.730164,770.673767 630.728210,770.645447 
	C640.256836,770.620972 639.807678,771.560608 639.692261,761.816223 
	C639.680664,760.836121 639.619385,759.793945 640.551819,758.942322 
	C643.650269,758.092590 645.215698,759.249146 645.171204,762.604980 
	C645.129272,765.770569 645.089661,768.938416 645.160400,772.102844 
	C645.437561,784.507019 643.948853,782.316772 655.925903,782.724121 
	C660.005371,782.862793 661.112976,781.172241 660.980713,777.393188 
	C660.735840,770.401672 660.854980,763.397827 660.778137,756.399597 
	C660.763672,755.080139 660.860901,753.626526 660.363586,752.467896 
	C658.043823,747.063416 658.807434,744.529907 664.771912,740.318909 
	C666.046631,744.450256 673.347656,746.961670 666.867310,752.634827 
	C666.300781,753.130737 666.373962,754.531250 666.401489,755.504456 
	C666.622803,763.327026 666.895508,771.148071 667.175659,778.968811 
	C667.230103,780.488464 667.382629,781.898682 669.214417,782.546509 
	C676.479248,785.115723 680.815613,782.110352 680.845032,774.398804 
	C680.846313,774.065552 680.846008,773.732239 680.847107,772.426880 
M617.914062,782.487671 
	C623.715332,782.335449 629.518250,782.226990 635.316772,782.004211 
	C637.044434,781.937866 639.436707,782.296387 639.450195,779.625977 
	C639.465820,776.517761 636.817078,777.201294 634.986877,777.195923 
	C622.538879,777.159424 610.090576,777.191345 597.642639,777.258972 
	C595.919495,777.268311 593.528931,776.808899 593.495361,779.527222 
	C593.461548,782.270569 595.865967,781.798462 597.585938,781.857605 
	C604.051758,782.080322 610.520569,782.216492 617.914062,782.487671 
M394.903107,777.252014 
	C393.099152,777.538086 390.364868,776.655579 390.560760,779.815857 
	C390.722992,782.433105 393.141541,781.950439 394.857513,781.959167 
	C407.134125,782.021667 419.411133,782.031799 431.687866,782.002747 
	C433.658142,781.998108 436.170013,782.070068 435.998230,779.207886 
	C435.833405,776.460815 433.262817,777.306274 431.646729,777.294067 
	C419.702393,777.203674 407.757080,777.237549 394.903107,777.252014 
M697.097290,711.399353 
	C694.208313,711.675720 690.903564,710.413269 688.643127,713.126892 
	C686.758545,715.389282 687.523926,730.234436 689.730164,733.670044 
	C695.094666,726.957275 699.484070,719.868225 703.605469,712.538696 
	C701.561035,711.200684 699.682922,711.570129 697.097290,711.399353 
M330.305084,719.288452 
	C333.259674,723.735840 335.478577,728.738098 340.124115,733.039062 
	C342.573120,726.262085 341.503113,720.167236 341.351166,714.155945 
	C341.323883,713.078369 340.529266,712.353271 339.458984,712.109314 
	C335.280945,711.156616 331.130798,710.719482 327.104797,712.476196 
	C327.221680,715.292969 328.866943,716.843018 330.305084,719.288452 
z"/>
<path fill="#000000" opacity="1.000000" stroke="none" 
	d="
M392.000000,819.024536 
	C514.640747,819.038940 636.781494,819.020386 758.922241,819.087646 
	C785.564636,819.102295 812.206848,819.448242 838.849426,819.575745 
	C842.647644,819.593933 846.544067,820.141113 846.712646,824.534790 
	C846.881287,828.929626 843.261780,830.702087 839.166443,830.765442 
	C828.171814,830.935425 817.175415,831.066772 806.179688,831.070190 
	C630.883728,831.124268 455.587799,831.161804 280.291840,831.186890 
	C251.798187,831.190979 223.304489,831.136780 194.810989,831.048157 
	C192.165680,831.039917 189.472336,830.821167 186.889755,830.278809 
	C183.701370,829.609314 182.066956,827.454163 182.514526,824.069153 
	C182.940338,820.848694 184.905182,819.610901 188.062668,819.631897 
	C196.060287,819.685242 204.058762,819.617126 212.056870,819.591858 
	C271.871246,819.402771 331.685638,819.212341 392.000000,819.024536 
z"/>
<path fill="#000000" opacity="1.000000" stroke="none" 
	d="
M398.000000,800.871704 
	C540.814209,800.882080 683.128357,800.893005 825.442566,800.899902 
	C828.776245,800.900085 832.104248,800.855286 835.388611,801.612976 
	C838.213257,802.264709 839.838440,804.048401 839.792664,806.865601 
	C839.746521,809.705017 837.909912,811.467102 835.192932,812.021912 
	C833.583008,812.350647 831.880981,812.298523 830.220337,812.298523 
	C620.248169,812.300659 410.275940,812.292236 200.303757,812.275696 
	C197.972046,812.275513 195.627975,812.291748 193.311554,812.070862 
	C189.944702,811.749817 186.798874,810.696289 186.923920,806.569824 
	C187.034607,802.917664 189.739822,801.478577 193.040985,801.250610 
	C196.360901,801.021423 199.696747,800.938782 203.025696,800.937012 
	C267.850464,800.902527 332.675232,800.889343 398.000000,800.871704 
z"/>
<path fill="#000000" opacity="1.000000" stroke="none" 
	d="
M663.000000,837.687378 
	C692.328003,837.715881 721.156006,837.734741 749.983948,837.793091 
	C752.137024,837.797424 754.328552,837.882324 756.432556,838.289734 
	C759.114075,838.808899 760.969666,840.510315 761.167175,843.364441 
	C761.375610,846.376282 759.273193,847.943848 756.808289,848.738281 
	C755.118408,849.282898 753.202698,849.264587 751.387939,849.264893 
	C591.750793,849.289429 432.113708,849.291809 272.476593,849.287659 
	C270.979828,849.287598 269.452667,849.346497 267.992981,849.082947 
	C265.460022,848.625427 263.679260,847.085999 263.460449,844.448242 
	C263.233276,841.709473 264.421753,839.655579 267.169464,838.631226 
	C269.750092,837.669189 272.411652,837.809753 275.071594,837.808838 
	C404.214386,837.766724 533.357178,837.727295 663.000000,837.687378 
z"/>
<path fill="#000000" opacity="1.000000" stroke="none" 
	d="
M533.000000,867.122253 
	C477.183075,867.139648 421.866180,867.157654 366.549255,867.171021 
	C363.887054,867.171692 361.210266,867.287720 358.682312,866.167786 
	C356.690155,865.285156 355.284088,863.882507 355.371063,861.630798 
	C355.461517,859.287964 356.709564,857.537598 358.981140,856.715393 
	C361.378967,855.847534 363.900726,855.933594 366.399323,855.934082 
	C457.039215,855.951843 547.679077,855.977783 638.318970,855.987061 
	C645.816284,855.987793 653.313782,855.830933 660.810791,855.855591 
	C662.784546,855.862061 664.801453,856.087708 666.718567,856.546692 
	C669.036987,857.101685 670.485535,858.795410 670.620728,861.186279 
	C670.769836,863.822754 669.256714,865.500549 666.871155,866.500366 
	C664.790771,867.372375 662.618896,867.193481 660.462646,867.192566 
	C618.141785,867.174438 575.820862,867.147217 533.000000,867.122253 
z"/>
<path fill="#000000" opacity="1.000000" stroke="none" 
	d="
M708.248596,866.179932 
	C704.277588,865.753357 699.414917,866.450623 699.634644,861.239014 
	C699.830688,856.592041 704.439819,857.018311 707.853088,856.818481 
	C711.004578,856.633911 714.172913,856.744934 717.333435,856.702393 
	C720.364502,856.661621 722.829407,857.724243 722.881592,861.035278 
	C722.931213,864.180237 720.521606,865.793579 717.676575,866.103760 
	C714.718323,866.426331 711.698730,866.186584 708.248596,866.179932 
z"/>
<path fill="#000000" opacity="1.000000" stroke="none" 
	d="
M79.027481,790.914490 
	C78.303818,797.974609 73.608269,794.578857 70.189354,795.225647 
	C69.422852,791.939087 69.468437,789.067932 70.050720,786.237549 
	C77.819931,784.906494 78.496742,785.238098 79.027481,790.914490 
z"/>
<path fill="#000000" opacity="1.000000" stroke="none" 
	d="
M870.729065,812.248901 
	C868.300476,810.612305 867.192322,808.730103 868.116089,806.165894 
	C868.750000,804.406372 869.777527,802.976013 871.893799,802.750549 
	C874.196350,802.505127 876.131897,803.093323 877.496643,805.047913 
	C878.535278,806.535461 878.648193,808.246277 877.708435,809.693237 
	C876.187378,812.035095 874.126465,813.558960 870.729065,812.248901 
z"/>
<path fill="#000000" opacity="1.000000" stroke="none" 
	d="
M955.032959,795.332642 
	C950.205200,795.812866 949.816956,793.057251 949.849182,789.728271 
	C949.877808,786.774475 951.210144,785.476562 954.101501,785.693420 
	C956.259644,785.855164 959.233032,784.921753 959.200928,788.565063 
	C959.176575,791.330872 960.897766,795.384705 955.032959,795.332642 
z"/>
<path fill="#000000" opacity="1.000000" stroke="none" 
	d="
M159.598602,811.467529 
	C156.722794,813.551453 154.171402,813.560608 152.336975,810.880920 
	C150.792236,808.624329 150.974686,805.973389 152.917389,803.985718 
	C154.786850,802.073181 157.256577,802.144287 159.292618,803.736755 
	C162.034515,805.881470 161.876907,808.529846 159.598602,811.467529 
z"/>
<path fill="#000000" opacity="1.000000" stroke="none" 
	d="
M523.206299,568.393921 
	C532.063049,572.859802 536.764221,579.540771 536.328003,589.294373 
	C535.946716,597.822083 531.294189,603.616577 523.883423,607.157837 
	C515.737122,611.050598 508.007996,609.813354 500.994568,604.184448 
	C493.613556,598.260498 491.417511,587.791321 495.618591,578.800537 
	C499.384521,570.741028 509.806122,565.386047 518.506348,567.082031 
	C519.971924,567.367676 521.400696,567.841858 523.206299,568.393921 
z"/>
<path fill="#000000" opacity="1.000000" stroke="none" 
	d="
M498.660034,442.010193 
	C498.659241,437.394196 498.659241,433.274292 498.659241,428.884583 
	C508.693512,427.383301 518.262146,427.876984 527.818054,428.197021 
	C530.313232,428.280609 531.147705,429.953156 531.135132,432.271332 
	C531.094482,439.743896 531.081116,447.216736 531.092957,454.689423 
	C531.097412,457.518127 529.919373,458.995667 526.926453,458.965729 
	C519.122803,458.887573 511.317810,458.846893 503.514343,458.910522 
	C499.681396,458.941742 498.280334,457.287689 498.601532,453.461334 
	C498.906036,449.833557 498.663055,446.159821 498.660034,442.010193 
z"/>
<path fill="#000000" opacity="1.000000" stroke="none" 
	d="
M506.145813,393.832611 
	C520.086060,387.563995 530.830017,394.901031 531.107788,410.457458 
	C531.337769,423.337463 531.337769,423.337219 518.559326,423.316589 
	C513.231995,423.308014 507.904541,423.318634 502.577393,423.282135 
	C500.888306,423.270569 498.928925,423.234192 498.873108,420.946075 
	C498.723419,414.811401 497.837952,408.601379 499.344055,402.566650 
	C500.241821,398.969513 502.396698,395.921661 506.145813,393.832611 
z"/>
<path fill="#000000" opacity="1.000000" stroke="none" 
	d="
M512.567627,490.382751 
	C515.650330,489.427032 517.816284,490.213409 519.388428,492.549500 
	C520.415588,494.075806 520.418579,495.679199 519.393433,497.192657 
	C517.485352,500.009430 514.992371,501.275940 511.793060,499.394562 
	C508.883240,497.683380 509.099976,494.342499 512.567627,490.382751 
z"/>
<path fill="#000000" opacity="1.000000" stroke="none" 
	d="
M415.985107,732.085449 
	C401.474121,731.938660 403.833160,733.395142 403.640320,720.102478 
	C403.459473,707.636169 403.571594,707.540100 415.880219,707.705566 
	C429.787811,707.892456 428.121643,705.523804 428.151062,720.234497 
	C428.177338,733.378845 429.703491,731.684204 415.985107,732.085449 
z"/>
<path fill="#000000" opacity="1.000000" stroke="none" 
	d="
M417.968079,652.666260 
	C428.838623,652.767090 428.136841,651.434631 428.175232,662.316101 
	C428.185242,665.147888 428.040527,667.988403 428.217316,670.809265 
	C428.463867,674.742798 426.566925,676.211487 422.865509,676.166748 
	C417.869476,676.106262 412.870789,676.125793 407.875244,676.218811 
	C404.964172,676.272888 403.591095,675.091492 403.644653,672.084229 
	C403.733582,667.088928 403.750458,662.087891 403.612579,657.094421 
	C403.525208,653.930298 404.728027,652.505615 407.984039,652.660950 
	C411.141266,652.811646 414.312164,652.676270 417.968079,652.666260 
z"/>
<path fill="#000000" opacity="1.000000" stroke="none" 
	d="
M428.157349,697.784790 
	C428.257202,701.706909 426.887848,703.446655 423.137421,703.289856 
	C418.166199,703.082031 413.177582,703.170532 408.199829,703.281738 
	C405.111633,703.350708 403.566589,702.188477 403.627075,698.947449 
	C403.716858,694.135498 403.683075,689.319702 403.614166,684.506775 
	C403.575165,681.781860 404.783936,680.625183 407.510315,680.666748 
	C412.987183,680.750183 418.467468,680.763184 423.943787,680.664490 
	C426.936523,680.610657 428.160187,682.005127 428.143982,684.861450 
	C428.120453,689.011292 428.156342,693.161499 428.157349,697.784790 
z"/>
<path fill="#000000" opacity="1.000000" stroke="none" 
	d="
M423.743591,648.226501 
	C418.131500,648.209167 412.989685,648.123169 407.849213,648.175049 
	C404.952118,648.204285 403.596924,647.028442 403.655151,644.036926 
	C403.748779,639.229309 403.703857,634.417664 403.635406,629.608887 
	C403.597321,626.931885 404.707855,625.667542 407.474213,625.706360 
	C413.112061,625.785583 418.752197,625.767395 424.390625,625.712280 
	C426.903717,625.687683 428.075104,626.917297 428.087891,629.312195 
	C428.115356,634.451843 428.111664,639.591980 428.062592,644.731445 
	C428.038879,647.213440 426.601624,648.273438 423.743591,648.226501 
z"/>
<path fill="#000000" opacity="1.000000" stroke="none" 
	d="
M404.768616,603.315796 
	C407.860992,597.814331 412.514099,596.141724 418.031952,596.863831 
	C423.044739,597.519897 426.549835,601.635071 427.735596,607.542297 
	C427.768219,607.704834 427.820282,607.863770 427.849518,608.026794 
	C429.955322,619.773376 428.746826,621.267090 417.112701,621.299377 
	C416.448914,621.301208 415.784882,621.314270 415.121368,621.301147 
	C402.517151,621.051758 403.682709,623.535461 403.609222,609.509338 
	C403.598816,607.520935 403.576447,605.511230 404.768616,603.315796 
z"/>
<path fill="#000000" opacity="1.000000" stroke="none" 
	d="
M604.633423,731.652344 
	C602.371948,731.053284 602.117126,729.537292 602.082764,728.021667 
	C601.958069,722.540161 601.916504,717.056824 601.831665,711.574341 
	C601.790466,708.913086 602.983948,707.629456 605.741882,707.670227 
	C611.224792,707.751160 616.710327,707.760315 622.193237,707.685059 
	C625.225708,707.643372 626.306702,709.131287 626.275269,711.982544 
	C626.218567,717.133362 626.166565,722.289673 626.344238,727.435730 
	C626.467285,730.996277 624.754333,732.135254 621.507629,732.041748 
	C616.029236,731.883972 610.547668,731.838867 604.633423,731.652344 
z"/>
<path fill="#000000" opacity="1.000000" stroke="none" 
	d="
M625.890503,654.377441 
	C626.134399,660.483582 626.144043,666.146912 626.317444,671.805298 
	C626.416809,675.047058 624.959778,676.268799 621.814087,676.196350 
	C616.651855,676.077454 611.484070,676.097839 606.320435,676.176880 
	C603.505066,676.219910 601.892822,675.273560 601.912231,672.191772 
	C601.944641,667.027771 601.826660,661.862976 601.829712,656.698547 
	C601.830627,655.208130 601.841187,653.093811 603.647705,653.062988 
	C611.013123,652.937378 618.467285,651.275391 625.890503,654.377441 
z"/>
<path fill="#000000" opacity="1.000000" stroke="none" 
	d="
M601.850708,697.787842 
	C601.836121,692.982605 601.847107,688.652954 601.817078,684.323608 
	C601.799988,681.855103 602.917786,680.667603 605.445435,680.689026 
	C611.107056,680.737000 616.769836,680.738342 622.431335,680.681641 
	C625.227722,680.653625 626.283264,682.070312 626.261292,684.696045 
	C626.220825,689.525208 626.201721,694.355286 626.252808,699.184143 
	C626.284668,702.190369 624.783447,703.323242 621.916504,703.262939 
	C616.755493,703.154480 611.590210,703.051392 606.430603,703.150696 
	C602.911743,703.218384 601.604492,701.556091 601.850708,697.787842 
z"/>
<path fill="#000000" opacity="1.000000" stroke="none" 
	d="
M601.834839,640.888245 
	C601.841064,636.915100 601.874573,633.426453 601.859375,629.937988 
	C601.847168,627.129211 602.957581,625.631531 606.012817,625.697021 
	C611.326660,625.810852 616.645325,625.774048 621.960754,625.707031 
	C624.841248,625.670776 626.291687,626.872253 626.257996,629.836792 
	C626.203186,634.653931 626.177490,639.472473 626.237793,644.289246 
	C626.276062,647.349915 624.681885,648.350525 621.869751,648.292908 
	C617.385559,648.200989 612.898804,648.247131 608.413452,648.200745 
	C601.980347,648.134155 601.980469,648.120972 601.834839,640.888245 
z"/>
<path fill="#000000" opacity="1.000000" stroke="none" 
	d="
M621.422607,599.457886 
	C627.183472,605.185913 626.325439,612.135132 626.074890,618.899292 
	C625.992371,621.126343 624.107727,621.276611 622.391541,621.283325 
	C616.916687,621.304810 611.441284,621.252502 605.966919,621.309326 
	C603.293945,621.337097 601.937927,620.174316 601.948242,617.468384 
	C601.958374,614.814331 601.818726,612.153564 601.959839,609.507202 
	C602.558472,598.287781 611.369934,593.578918 621.422607,599.457886 
z"/>
</svg>