<svg version="1.1" id="Layer_1" xmlns="http://www.w3.org/2000/svg" xmlns:xlink="http://www.w3.org/1999/xlink" x="0px" y="0px"
	 width="100%" viewBox="0 0 1024 1024" enable-background="new 0 0 1024 1024" xml:space="preserve">
<path fill="#000000" opacity="1.000000" stroke="none" 
	d="
M1.000000,814.000000 
	C1.000000,781.979126 1.000000,749.958191 1.186652,717.679016 
	C2.033069,718.285156 2.532549,720.225037 3.747230,719.390015 
	C8.412411,716.182922 12.294157,718.404968 16.220335,720.716309 
	C18.500540,722.058655 20.329775,721.584717 21.943708,719.652527 
	C24.194792,716.957520 26.416071,714.189026 27.669212,710.900269 
	C30.172167,704.331421 34.474693,699.004150 39.425926,694.301147 
	C45.939266,688.114319 52.364540,681.795959 59.551224,676.347290 
	C64.742363,672.411499 69.751190,668.244629 73.351410,662.732910 
	C76.224098,658.335083 80.314987,656.237671 85.266281,657.074585 
	C91.802467,658.179382 97.337120,656.294556 102.825371,653.160706 
	C105.412476,651.683472 108.328186,650.791321 111.056847,649.550293 
	C115.834686,647.377197 120.323799,647.832397 124.905548,650.370667 
	C131.209351,653.862915 133.931534,652.595093 136.194321,645.679260 
	C137.349060,642.149963 137.170105,638.806152 135.243866,635.581116 
	C133.965118,633.440125 132.671616,631.328613 131.915222,628.893616 
	C128.848114,619.020081 127.969597,608.117737 118.832718,601.045959 
	C117.872414,600.302734 117.341042,598.818298 116.940010,597.571777 
	C115.226410,592.245239 111.903374,587.867310 108.976730,583.208618 
	C100.867516,570.299927 95.827728,556.341614 95.715622,540.886536 
	C95.586143,523.038574 96.553200,505.284271 99.716431,487.670624 
	C100.625366,482.609406 100.718750,477.426849 100.475342,472.238007 
	C99.621109,454.027679 95.004662,436.010956 97.693542,417.611908 
	C98.123497,414.669861 98.150063,411.664185 98.283783,408.684387 
	C99.012558,392.445038 100.024788,376.267822 101.911385,360.073517 
	C103.283661,348.294189 101.760025,336.064240 100.496979,324.144440 
	C99.959808,319.074951 99.530243,314.093933 100.759079,309.354980 
	C102.233459,303.669098 102.949677,297.925751 103.884010,292.179321 
	C105.559799,281.872742 105.832588,271.054810 111.170937,261.819244 
	C115.957886,253.537567 119.090874,244.598511 123.052673,236.003815 
	C125.309792,231.107208 127.467033,226.246689 131.378479,222.533508 
	C141.722183,212.714111 148.970001,200.525238 157.521866,189.319183 
	C164.805023,179.775574 171.132034,169.316376 180.752777,161.701324 
	C186.343109,157.276428 192.983475,153.762177 196.436401,147.302307 
	C199.470413,141.626221 203.628189,136.936188 207.459457,131.929657 
	C209.989731,128.623199 212.783554,125.475571 214.957397,121.947525 
	C220.574051,112.832039 227.927231,106.302925 237.505890,100.920395 
	C252.547897,92.467865 268.213989,85.129379 282.686554,75.550079 
	C296.972687,66.094185 312.098328,57.902424 326.906769,49.243420 
	C330.001953,47.433556 332.328186,44.949078 334.676025,42.316193 
	C339.852325,36.511414 340.823395,28.672140 344.709991,22.316326 
	C348.678772,15.826186 345.518768,8.995203 346.354401,2.387827 
	C346.404877,1.988696 345.474182,1.465476 345.000000,0.999997 
	C458.354218,1.000000 571.708435,1.000000 685.265381,1.146762 
	C684.373718,1.962959 682.544922,2.418223 683.254333,4.093192 
	C685.737244,9.955998 685.519531,16.816864 690.945740,21.638987 
	C697.528625,27.488974 704.051147,33.585285 709.568420,40.408993 
	C715.928772,48.275459 723.532837,53.589642 733.116638,56.363918 
	C739.385315,58.178555 744.510742,61.928230 748.900452,66.550323 
	C754.559814,72.509216 760.604126,77.747437 767.993896,81.592285 
	C773.729065,84.576248 779.160645,88.359604 783.109375,93.684608 
	C789.001160,101.629669 795.735901,108.478043 804.208496,113.861664 
	C809.626282,117.304245 815.824707,120.159523 819.752258,125.465668 
	C826.108582,134.053070 834.353516,140.403305 842.812134,146.628906 
	C850.531494,152.310440 857.258484,158.935974 861.717896,167.597382 
	C863.637573,171.325897 866.461121,174.416290 869.012329,177.709778 
	C877.170715,188.242035 885.838501,198.505569 892.000854,210.351105 
	C898.522583,222.887558 903.078491,236.430450 910.206665,248.661621 
	C915.022095,256.924347 919.221313,265.229034 921.398987,274.627563 
	C924.255554,286.955963 930.513306,297.647552 937.593628,308.123199 
	C946.861084,321.835083 954.977356,336.263306 951.708618,354.054535 
	C949.335205,366.972473 952.779846,379.987396 951.284180,392.957733 
	C950.534302,399.460175 951.049255,405.878845 953.913696,412.004120 
	C955.555054,415.514160 955.495483,419.353729 955.451111,423.259003 
	C955.174683,447.591461 948.000244,470.570923 940.564209,493.236176 
	C936.656250,505.147675 934.186584,517.362366 931.827148,529.368164 
	C928.328430,547.170837 924.639587,565.287170 925.930786,583.765198 
	C926.043823,585.382446 925.693176,587.106628 925.217529,588.678040 
	C922.810974,596.628540 921.188538,604.947632 916.277649,611.863831 
	C912.997375,616.483459 912.806519,622.917114 907.955688,626.435913 
	C899.914490,632.268799 892.293091,638.925293 881.799255,640.307617 
	C878.842041,640.697144 875.715088,642.026733 874.600891,645.124390 
	C870.686218,656.008362 867.319458,667.134338 870.540039,678.770569 
	C872.436340,685.622070 873.485779,692.427307 873.042847,699.478516 
	C872.818787,703.046814 873.457397,706.273376 875.088562,709.572083 
	C877.697021,714.847290 877.992981,720.452881 875.943481,727.219360 
	C873.424622,723.725525 873.300659,720.848206 873.041016,718.129944 
	C871.252075,699.400879 868.133179,680.863281 865.141174,662.307556 
	C864.587402,658.872986 864.506836,655.320801 862.962219,652.095032 
	C862.135559,650.368652 860.995605,648.864502 858.925781,648.800110 
	C856.838745,648.735168 855.569397,650.206177 854.753296,651.898743 
	C854.111877,653.228638 853.603455,654.700256 853.412964,656.158203 
	C850.701233,676.911743 848.050903,697.673218 845.391602,718.433594 
	C842.836365,738.381592 840.124023,758.311340 837.797363,778.286011 
	C836.375305,790.494446 833.331299,802.636841 834.433594,814.998474 
	C835.686157,829.044617 847.757690,843.472961 865.249878,840.401794 
	C877.221863,838.299805 886.105347,823.970215 884.349182,810.340149 
	C882.159363,793.344238 880.181091,776.320740 878.168030,759.302551 
	C877.884521,756.906006 877.505310,754.367065 879.646729,752.399475 
	C882.291443,753.263794 883.009949,756.417664 885.802734,756.706848 
	C891.099304,757.255066 895.055176,760.321533 898.585022,763.949341 
	C902.225708,767.691284 906.049866,767.876343 910.250244,765.107422 
	C912.644531,763.529053 915.245544,762.577393 918.067932,761.956482 
	C924.944397,760.443848 929.563171,756.311829 931.838196,749.552612 
	C932.790833,746.722168 933.831299,743.875305 935.231995,741.249390 
	C941.802795,728.930298 942.597473,716.217041 937.998535,703.148071 
	C936.551697,699.036499 935.134155,694.965332 935.090454,690.557739 
	C935.040161,685.487427 934.223816,680.483032 932.012939,675.979187 
	C926.340149,664.423462 924.098694,651.979858 921.956543,639.491089 
	C921.208435,635.129822 920.061401,631.118774 916.482239,628.061340 
	C913.892883,625.849426 914.268250,623.834167 917.093506,621.581909 
	C920.531616,618.841064 924.398132,616.393738 926.102661,611.858398 
	C927.160828,609.042786 929.063477,609.667114 930.647522,611.600647 
	C933.336670,614.882935 936.886108,617.052002 940.321045,619.410889 
	C944.973267,622.605713 949.858887,625.509460 953.255798,630.269897 
	C958.514099,637.638977 965.536743,641.009644 974.789368,640.072754 
	C986.655334,638.871338 997.081482,642.566162 1006.098816,650.393433 
	C1010.091919,653.859436 1014.607910,656.158386 1020.140869,656.030029 
	C1021.752258,655.992676 1023.379822,656.657227 1025.000000,657.000000 
	C1025.000000,725.020874 1025.000000,793.041809 1024.645508,861.422852 
	C1017.814758,862.288696 1011.987244,860.028198 1006.066589,857.823242 
	C1002.264343,856.407227 998.163208,857.112976 994.180237,857.644714 
	C988.683533,858.378662 982.901428,859.136475 977.987244,856.341736 
	C970.957397,852.343689 963.408386,852.061768 955.788513,851.639526 
	C951.113281,851.380371 946.191589,853.167664 945.052246,857.293884 
	C943.754578,861.993530 941.151978,862.002502 937.841797,862.058533 
	C921.016602,862.343384 904.190491,862.762451 887.364502,862.772583 
	C781.710266,862.836365 676.055847,862.897400 570.401733,862.781799 
	C409.250275,862.605469 248.097473,863.899231 86.947472,862.352844 
	C83.145607,862.316345 79.493927,862.215088 78.253311,866.750183 
	C75.214172,866.733337 73.964310,864.628601 72.252480,863.090149 
	C67.386765,858.717285 64.521469,852.611145 59.672939,848.332214 
	C49.218460,839.105835 38.615910,830.047852 29.342215,819.593811 
	C23.886602,813.443909 17.722267,809.711243 9.118157,812.192078 
	C7.752156,812.585999 6.100986,812.448608 4.688128,812.111084 
	C2.750836,811.648315 1.968385,812.875916 1.000000,814.000000 
M595.863037,145.757874 
	C594.420837,145.360367 592.971802,144.985840 591.537354,144.562027 
	C556.625793,134.247726 520.983887,130.708542 484.849854,134.638260 
	C448.288757,138.614410 413.402405,149.021454 380.548035,165.626389 
	C325.120026,193.640259 282.258301,234.789383 252.722610,289.547119 
	C230.025269,331.626892 219.649155,376.802887 220.383987,424.437347 
	C220.717728,446.070282 223.794754,467.481384 229.379349,488.487305 
	C236.584732,515.589722 247.706589,540.929443 262.820953,564.530518 
	C264.065582,566.474060 265.197876,568.601685 268.050934,568.597351 
	C287.546722,568.567932 307.042572,568.590393 326.538239,568.527771 
	C328.554626,568.521301 330.751343,568.114319 331.362061,565.759949 
	C331.907196,563.658203 332.215851,561.061829 330.223724,559.725525 
	C327.233521,557.719727 327.545929,555.003906 327.754822,552.206848 
	C327.927948,549.889038 328.413269,547.595215 328.603149,545.277954 
	C330.286774,524.733765 332.662994,504.263763 335.325226,483.829193 
	C336.212463,477.018646 336.464111,476.972137 343.725128,476.958160 
	C368.053619,476.911346 392.382263,476.956238 416.710724,476.902039 
	C425.580872,476.882294 425.691101,476.719574 425.702454,468.000641 
	C425.745239,435.173676 425.742645,402.346619 425.816315,369.519745 
	C425.833618,361.812988 426.080414,361.644775 433.599731,361.643646 
	C486.923218,361.635681 540.246704,361.633057 593.570190,361.648071 
	C600.208984,361.649933 600.272583,361.719940 600.273254,368.347198 
	C600.276611,401.507660 600.265015,434.668121 600.232605,467.828583 
	C600.223938,476.736847 600.331665,476.924164 609.018372,476.920959 
	C633.846619,476.911774 658.675842,476.980774 683.502319,476.757385 
	C688.459656,476.712769 690.226074,478.377960 690.454895,483.310150 
	C690.785217,490.429169 691.881165,497.514435 692.696777,504.608765 
	C694.555786,520.777771 696.482361,536.939148 698.265137,553.116455 
	C698.468811,554.965149 699.093018,557.263611 696.857178,558.538940 
	C693.460571,560.476318 693.851257,563.621521 694.676758,566.462402 
	C695.536743,569.421814 698.478149,568.595642 700.696777,568.601929 
	C718.026794,568.650879 735.364197,568.344482 752.683228,568.782898 
	C758.908264,568.940491 762.419495,566.645203 765.478638,561.525818 
	C774.389893,546.612610 782.111328,531.151062 788.545227,515.023254 
	C789.424866,512.818237 789.794495,510.118103 792.431030,509.074005 
	C794.627258,509.644226 795.153320,511.593079 796.150330,513.058411 
	C798.258850,516.157166 800.735352,519.049377 804.304321,520.170532 
	C811.750854,522.509644 819.292297,524.677124 827.276611,523.955750 
	C830.979919,523.621155 834.040710,522.033020 836.147339,519.007324 
	C842.036621,510.548584 847.728394,501.951782 853.657898,493.521851 
	C858.484863,486.659485 860.533875,478.895599 862.163025,470.814972 
	C864.954407,456.969330 870.194641,443.574127 870.130310,429.210815 
	C870.018555,404.260803 862.813110,381.657349 849.606934,360.299683 
	C841.548950,347.267914 832.600342,338.716583 816.479004,339.164673 
	C811.683899,339.297974 808.487976,340.196350 806.311462,344.433136 
	C804.525269,347.910156 802.557983,351.294189 800.429260,355.158051 
	C797.349487,351.722565 796.831299,348.001404 795.848389,344.600739 
	C779.640625,288.526154 748.602844,242.021866 704.442932,204.287506 
	C672.752625,177.208359 636.578369,158.012787 595.863037,145.757874 
M536.623901,535.900330 
	C530.410034,530.613953 524.248169,525.264709 517.965454,520.061462 
	C513.110962,516.041077 511.634277,516.170349 506.811920,520.319702 
	C498.983978,527.055115 491.174652,533.812744 483.297485,540.490173 
	C462.084290,558.472473 441.045105,576.669556 419.496613,594.241577 
	C411.856018,600.472229 408.925415,607.088440 409.010590,617.175171 
	C409.553802,681.484741 409.300568,745.800903 409.329407,810.114929 
	C409.332123,816.176331 409.861023,816.873474 415.919098,816.530457 
	C428.077026,815.842102 440.213043,815.974060 452.370453,816.490051 
	C460.404480,816.830933 460.703430,816.176208 460.853241,808.177490 
	C461.374054,780.371155 459.315918,752.498230 461.790741,724.768372 
	C463.666687,703.748840 475.191742,688.708191 495.010590,681.166260 
	C515.047180,673.541504 533.318420,677.334717 549.010254,692.191223 
	C561.817505,704.316711 565.392883,719.803223 565.279724,736.736084 
	C565.116150,761.227661 565.291138,785.721558 565.108398,810.212891 
	C565.072693,814.994690 566.774780,816.869324 571.519043,816.639404 
	C579.001526,816.276733 586.497925,816.095825 593.989502,816.062012 
	C599.481506,816.037292 604.974487,816.402710 610.468384,816.536133 
	C614.709656,816.639099 616.985596,814.901672 616.743835,810.260071 
	C616.501526,805.607544 616.693115,800.932373 616.692444,796.267151 
	C616.683167,734.455811 616.611084,672.644287 616.785278,610.833496 
	C616.798828,606.016296 615.447021,602.774048 611.893738,599.632507 
	C587.433533,578.007019 562.664124,556.753235 536.623901,535.900330 
M575.733704,376.485657 
	C570.246094,376.674866 564.721191,377.369049 559.277222,376.967316 
	C533.484253,375.063904 507.648560,376.489380 481.838959,375.969513 
	C469.451874,375.719971 456.978088,377.554321 444.472839,376.505066 
	C437.377167,375.909729 436.379730,377.074524 436.379089,384.196808 
	C436.375000,431.696136 436.351532,479.195496 436.443176,526.694641 
	C436.448944,529.688293 434.787842,533.886963 438.116577,535.417236 
	C441.338348,536.898315 443.654877,533.100708 445.970642,531.187439 
	C466.906738,513.890686 487.823669,496.567871 508.515717,478.981506 
	C511.983734,476.034027 514.018799,476.296875 517.266968,479.019073 
	C538.587952,496.887604 560.054810,514.581970 581.492249,532.311218 
	C583.486267,533.960327 585.375244,535.858704 588.316406,536.545044 
	C589.315369,532.979370 589.007141,529.649170 589.022583,526.371887 
	C589.114563,506.873688 588.898865,487.370758 589.250305,467.877808 
	C589.727966,441.383698 589.725098,414.892639 589.246216,388.405426 
	C589.029175,376.397919 588.682007,376.404205 575.733704,376.485657 
M344.534393,810.926819 
	C344.612152,814.963257 347.114258,815.770142 350.573120,815.745789 
	C363.064880,815.657837 375.557495,815.689758 388.049805,815.686951 
	C396.720276,815.684998 396.756836,815.692688 396.756409,807.168335 
	C396.753387,745.534973 396.733948,683.901550 396.721558,622.268188 
	C396.720856,618.770569 396.849792,615.268616 396.714691,611.776489 
	C396.550751,607.539429 393.268555,603.468384 390.252319,604.288574 
	C384.973755,605.723999 383.048248,602.403503 380.078308,600.162354 
	C376.159241,597.205017 374.608215,597.687195 372.995697,602.442505 
	C372.801910,603.013977 372.529114,603.558716 372.172180,604.400574 
	C369.551697,597.200195 370.311951,594.144409 375.483307,589.855469 
	C379.072327,586.878845 382.659210,583.898254 386.183563,580.846069 
	C387.377411,579.812134 389.072388,578.968323 388.627106,576.934631 
	C387.753876,575.563416 386.435699,575.424622 385.075562,575.422546 
	C373.082062,575.404175 361.088440,575.416626 349.095123,575.362793 
	C345.651672,575.347290 344.324219,577.080078 344.426147,580.346802 
	C344.628693,586.836670 344.993927,593.331665 344.899414,599.818787 
	C344.331573,638.787964 344.407898,677.752441 344.820709,716.724915 
	C345.150574,747.865173 344.635498,779.014282 344.534393,810.926819 
M629.131165,638.500854 
	C628.680237,657.144714 628.695740,675.786804 628.838013,694.437561 
	C629.126343,732.253967 629.034668,770.073242 629.095398,807.891357 
	C629.106934,815.056580 629.666260,815.666809 636.685486,815.677795 
	C649.013977,815.697144 661.342590,815.701660 673.671021,815.670105 
	C680.324951,815.653076 680.780457,815.184631 680.783875,808.539673 
	C680.795837,785.548096 680.783142,762.556458 680.786011,739.564880 
	C680.792480,687.250916 680.815308,634.936951 680.795654,582.622986 
	C680.793152,575.946777 680.190796,575.393188 673.736267,575.370972 
	C663.240112,575.334900 652.743713,575.321411 642.247864,575.379333 
	C640.530212,575.388855 638.517944,574.714111 637.201538,576.727356 
	C637.228027,579.103943 639.316711,579.977905 640.738098,581.203491 
	C644.519226,584.463684 648.444214,587.558594 652.346130,590.676514 
	C655.078735,592.860046 655.253174,594.755005 651.693970,596.034424 
	C647.778015,597.442078 645.007690,600.322632 642.096497,603.053406 
	C641.027344,604.056335 640.192444,605.286499 638.352234,605.098938 
	C631.061646,604.356140 629.242798,606.026001 629.184143,613.512512 
	C629.121460,621.508301 629.156006,629.504822 629.131165,638.500854 
M694.315247,790.500000 
	C694.315979,796.997803 694.439209,803.498657 694.272888,809.992188 
	C694.168335,814.073792 695.916748,815.687439 699.919006,815.673035 
	C718.744812,815.605469 737.571228,815.594604 756.396729,815.699707 
	C760.293518,815.721436 761.682617,814.131958 761.677185,810.322754 
	C761.612000,765.005615 761.609558,719.688293 761.679443,674.371155 
	C761.685425,670.479614 760.035400,668.929871 756.309937,668.966980 
	C750.146362,669.028320 743.981079,669.028992 737.817444,668.965820 
	C725.825256,668.842896 713.831604,668.743835 701.842957,668.454285 
	C697.416077,668.347351 694.848755,669.648132 694.881836,674.572754 
	C694.910767,678.892517 694.351196,683.214844 694.345032,687.536438 
	C694.296570,721.524170 694.318726,755.512146 694.315247,790.500000 
M304.699127,815.638367 
	C311.362305,815.641785 318.025726,815.683228 324.688538,815.637451 
	C330.759094,815.595703 331.605530,814.763184 331.606537,808.670776 
	C331.613037,769.192566 331.568024,729.714355 331.605255,690.236145 
	C331.610046,685.161804 331.301147,680.486145 324.823212,679.481567 
	C326.300018,675.722839 328.950073,672.960510 329.305542,669.117065 
	C325.245087,669.117065 321.436829,669.133972 317.628754,669.114136 
	C302.138397,669.033691 286.648193,668.928040 271.157776,668.861023 
	C264.769073,668.833435 263.985291,669.624512 263.974823,676.059814 
	C263.968323,680.056946 264.096649,684.054199 264.101929,688.051453 
	C264.155029,728.195862 264.183868,768.340332 264.250031,808.484741 
	C264.261200,815.257141 264.679230,815.646729 271.280640,815.654358 
	C282.106842,815.666870 292.933075,815.632812 304.699127,815.638367 
M167.639114,648.744812 
	C163.622437,649.738159 162.850235,653.070740 162.384506,656.401001 
	C159.350159,678.098755 156.292603,699.794128 153.450333,721.517517 
	C150.047607,747.524475 146.830475,773.555786 143.579041,799.582336 
	C142.445602,808.655151 141.298157,817.618408 145.148819,826.566772 
	C149.456909,836.578003 159.990097,842.504761 170.655838,840.053162 
	C182.935806,837.230530 192.721939,825.346802 192.545898,812.435913 
	C192.312195,795.296143 189.600815,778.349854 187.773422,761.331543 
	C184.029037,726.460388 178.187073,691.884766 173.512436,657.146179 
	C173.051773,653.722961 172.393051,650.096497 167.639114,648.744812 
M547.377808,782.499756 
	C547.380676,791.830322 547.399353,801.161011 547.376831,810.491516 
	C547.370117,813.276001 547.989380,815.612915 551.326233,815.690002 
	C554.741882,815.768921 554.743164,813.208557 554.741028,810.790955 
	C554.716980,783.132935 554.973694,755.470642 554.570496,727.818115 
	C554.211609,703.205322 529.708496,683.951050 505.628693,688.766479 
	C485.973480,692.697083 471.479034,710.224731 471.397186,730.499695 
	C471.289551,757.158020 471.368805,783.817017 471.371185,810.475769 
	C471.371277,811.474976 471.353668,812.478882 471.439819,813.472351 
	C471.610535,815.440857 472.730469,816.463257 474.706238,816.510254 
	C476.607544,816.555420 478.023163,815.742371 478.353058,813.823914 
	C478.632660,812.198242 478.618805,810.510559 478.619995,808.850220 
	C478.639069,782.358093 478.532623,755.865417 478.681183,729.374084 
	C478.783905,711.053223 494.922913,695.855713 513.584351,696.151855 
	C531.861938,696.441956 547.321411,711.675964 547.364807,729.515198 
	C547.406921,746.843323 547.376465,764.171509 547.377808,782.499756 
M818.297241,838.712402 
	C821.528564,832.884949 822.989563,826.834167 822.023682,820.037415 
	C819.051147,799.120117 816.399536,778.157288 813.589966,757.216614 
	C812.639465,750.131958 811.645996,743.051880 810.551758,735.988342 
	C810.225586,733.883301 809.803284,731.308777 807.039673,731.262390 
	C804.538147,731.220459 804.059387,733.677979 803.593445,735.562256 
	C802.997498,737.972229 802.702942,740.462463 802.366089,742.929993 
	C799.803406,761.704773 797.252319,780.481201 794.718445,799.259888 
	C793.585083,807.659668 791.939026,816.040466 791.557129,824.476624 
	C791.206421,832.223816 793.474365,839.492981 801.208923,843.365906 
	C806.924194,846.227661 812.283142,844.745850 818.297241,838.712402 
M204.586578,826.186340 
	C205.351974,829.747314 205.559509,833.468262 207.514313,836.692444 
	C210.331314,841.338623 213.946060,844.510315 219.851013,844.657593 
	C226.026276,844.811401 229.779892,841.704956 232.543976,836.680237 
	C235.817108,830.730042 234.903778,824.366882 234.174576,818.136597 
	C232.494934,803.785828 230.535919,789.467468 228.653824,775.140686 
	C226.966614,762.297485 225.288391,749.452454 223.461105,736.628906 
	C223.146103,734.418274 222.701813,731.414185 219.823471,731.372559 
	C216.826996,731.329163 216.672211,734.276733 216.341843,736.562927 
	C215.440247,742.801819 214.558670,749.044006 213.732330,755.293274 
	C210.644806,778.643066 207.582565,801.996216 204.586578,826.186340 
M528.499817,836.637207 
	C558.136719,836.632874 587.773682,836.630737 617.410583,836.617859 
	C618.905945,836.617188 620.409668,836.602783 621.893799,836.445923 
	C622.948303,836.334595 623.787415,835.700500 623.936401,834.570557 
	C624.117432,833.197632 623.348816,832.309753 622.088989,832.010254 
	C620.971985,831.744812 619.791138,831.588379 618.645935,831.624023 
	C584.522583,832.684448 550.401733,831.153564 516.268738,831.669373 
	C478.994080,832.232544 441.701874,831.633240 404.417328,831.549805 
	C402.429962,831.545349 399.879028,831.277161 399.718842,833.968811 
	C399.547424,836.849365 402.164886,836.531128 404.124176,836.618469 
	C405.287415,836.670349 406.454742,836.632324 407.620239,836.632385 
	C447.580078,836.633911 487.539917,836.635193 528.499817,836.637207 
M405.505432,848.707092 
	C478.648956,848.708618 551.792480,848.730591 624.935913,848.621948 
	C627.353149,848.618408 631.835693,850.374390 631.778015,846.346680 
	C631.731445,843.098877 627.395081,844.436218 624.973145,844.433899 
	C548.830627,844.360352 472.688019,844.377197 396.545410,844.381775 
	C395.545898,844.381836 394.544342,844.364441 393.547363,844.420044 
	C391.970154,844.507935 390.288361,844.875854 390.212585,846.723145 
	C390.122101,848.930054 392.063110,848.682861 393.513336,848.700439 
	C397.178253,848.745056 400.844116,848.708862 405.505432,848.707092 
M710.507019,649.325928 
	C706.683960,649.327087 702.859863,649.278381 699.038208,649.351501 
	C697.265564,649.385376 694.881531,649.151794 694.972961,651.772217 
	C695.051270,654.017700 697.245117,653.810608 698.873718,653.811768 
	C720.481995,653.826721 742.090332,653.827332 763.698547,653.786804 
	C765.636047,653.783142 768.403198,654.040161 768.485535,651.452209 
	C768.583923,648.358704 765.588135,649.405579 763.863342,649.396423 
	C746.410645,649.303894 728.957336,649.331665 710.507019,649.325928 
M328.905426,649.573975 
	C306.970581,649.503357 285.035645,649.393188 263.100952,649.422974 
	C260.878998,649.425964 256.976624,648.196350 257.032593,651.626099 
	C257.084412,654.800476 260.955017,653.799866 263.241943,653.804260 
	C283.683716,653.843262 304.125732,653.761902 324.567657,653.708313 
	C325.729767,653.705261 326.922150,653.788574 328.047455,653.564941 
	C330.508026,653.075928 330.804321,651.668518 328.905426,649.573975 
M661.499146,562.646667 
	C666.493896,562.654114 671.489563,562.718018 676.482910,562.637817 
	C678.198486,562.610291 680.763672,563.148743 680.867432,560.609375 
	C680.975281,557.970093 678.430115,558.412598 676.691650,558.409241 
	C659.376526,558.375671 642.061218,558.365295 624.746216,558.419250 
	C622.883606,558.425049 619.969543,557.944275 620.129333,560.744690 
	C620.287598,563.517395 623.211853,562.619629 625.036804,562.630005 
	C636.857361,562.697327 648.678528,562.653625 661.499146,562.646667 
M373.881775,558.738892 
	C365.748230,558.628357 357.614838,558.477661 349.480957,558.439819 
	C347.772919,558.431824 345.180084,558.024048 345.300354,560.628784 
	C345.415253,563.117615 347.985321,562.611511 349.703400,562.617554 
	C366.640137,562.677673 383.577118,562.694580 400.513916,562.664673 
	C402.193115,562.661682 404.343353,563.222107 405.120728,559.266113 
	C394.957092,557.622498 384.801697,559.718201 373.881775,558.738892 
M618.433655,595.030762 
	C619.672180,596.139343 620.872314,597.295288 622.161926,598.340820 
	C623.117371,599.115479 624.277954,599.528381 625.335510,598.587952 
	C626.510254,597.543335 626.514771,596.221558 625.596252,595.009399 
	C625.002014,594.225220 624.271606,593.508118 623.489502,592.907959 
	C615.311218,586.632141 607.119141,580.374207 598.901855,574.149719 
	C598.046875,573.502075 597.046021,572.608521 595.274963,574.541992 
	C602.847412,581.227539 610.387817,587.884888 618.433655,595.030762 
M403.018738,593.881165 
	C402.020874,594.959778 401.883148,596.298950 403.465088,596.466797 
	C406.230743,596.760315 407.693878,594.941895 408.908478,591.945679 
	C406.638641,592.611267 405.069092,593.071533 403.018738,593.881165 
z"/>
<path fill="#000000" opacity="1.000000" stroke="none" 
	d="
M446.326019,919.435181 
	C442.854980,919.855652 440.321686,920.805298 438.542725,923.800354 
	C436.607544,927.058655 432.406952,926.148865 431.382996,924.188232 
	C428.913635,919.459900 424.834534,919.050964 420.659576,918.129211 
	C420.273224,918.043884 419.979095,917.540955 419.690521,915.898560 
	C447.796326,915.782471 475.902161,915.666382 504.520874,915.548218 
	C503.195099,911.571716 501.047363,912.367188 499.409943,912.360229 
	C471.912537,912.243896 444.407959,911.846069 416.922516,912.392090 
	C410.823578,912.513306 405.361023,914.171509 400.608276,908.753174 
	C399.085419,907.016968 395.845093,907.770569 393.428223,907.313477 
	C388.713348,906.421875 384.889496,903.759033 380.670288,901.960083 
	C362.068817,894.028625 342.527252,898.318237 323.414886,897.203003 
	C317.792786,896.874939 312.116943,897.367554 305.832458,895.712158 
	C308.098175,893.871094 310.245544,894.178589 312.181793,894.159607 
	C325.179321,894.032043 338.177795,893.997742 351.175903,893.926880 
	C352.508850,893.919617 353.844360,893.914551 355.173798,893.830750 
	C357.163605,893.705383 359.665833,893.821106 359.431854,890.937500 
	C359.215790,888.274353 356.783905,888.985840 355.054626,888.982727 
	C324.724976,888.928284 294.394989,888.969543 264.065765,888.834900 
	C244.237869,888.746826 224.411362,888.373901 204.583542,888.216125 
	C200.405197,888.182861 196.883087,887.079895 193.628052,884.273071 
	C183.726578,875.735229 171.345413,875.323059 159.223236,874.432251 
	C142.619598,873.212341 125.995590,872.271118 109.384956,871.142029 
	C108.012283,871.048767 106.353943,871.329163 105.030464,869.255371 
	C362.359924,869.255371 619.290344,869.255371 876.653137,869.255371 
	C875.821899,872.526184 873.502258,872.483765 871.770508,872.653809 
	C856.685974,874.135132 841.834656,877.305786 826.682983,878.443115 
	C816.254517,879.225952 805.897583,881.190308 796.205627,885.621460 
	C794.587402,886.361328 792.665405,886.722290 790.875000,886.753174 
	C780.546814,886.931519 770.216064,886.974976 759.885986,887.024780 
	C757.176086,887.037903 754.934021,886.370728 752.740906,884.279907 
	C749.572449,881.259338 744.947510,881.199768 740.907593,881.181335 
	C725.598816,881.111450 710.229431,879.918030 695.000671,882.243591 
	C689.725098,883.049133 684.737854,882.791748 679.746521,881.137085 
	C674.900330,879.530334 670.963989,880.473694 668.007080,884.939941 
	C665.900269,888.122070 663.158447,888.912964 659.043823,888.434082 
	C652.456787,887.667480 646.312988,890.311768 640.965698,894.202332 
	C638.579773,895.938354 636.301147,897.123108 633.257446,897.120361 
	C584.596252,897.076233 535.935059,897.116150 487.273804,897.105530 
	C458.110046,897.099182 428.946320,897.028870 399.782562,897.026367 
	C398.050110,897.026245 396.097961,896.301514 394.446289,898.234558 
	C395.138214,901.467285 397.829285,900.666138 399.908234,900.668884 
	C432.405975,900.712585 464.903809,900.707947 497.401611,900.706726 
	C534.732483,900.705322 572.063293,900.688538 609.394165,900.706665 
	C612.145813,900.708008 614.897400,900.937927 618.138855,901.083618 
	C616.256836,903.530151 614.115601,903.859619 612.042542,904.316162 
	C610.099060,904.744263 608.354675,905.657166 608.461365,907.836304 
	C608.672974,912.161926 605.835022,912.184998 602.865784,912.193848 
	C588.866821,912.235352 574.867920,912.280029 560.868958,912.301880 
	C549.369751,912.319885 537.870300,912.264709 526.371704,912.352112 
	C524.553833,912.365906 522.293884,911.480652 520.302856,915.279175 
	C532.873413,916.080200 544.780945,915.573242 556.647949,915.687805 
	C568.704468,915.804199 580.763000,915.713440 592.837280,916.435852 
	C589.423645,918.885254 585.718872,918.945312 581.991943,918.481995 
	C579.137268,918.127075 576.365662,918.217224 573.567078,918.897522 
	C568.465271,920.137695 568.232300,920.492798 569.893799,925.625305 
	C568.091736,927.228638 565.834473,926.846252 563.736389,926.855347 
	C550.571167,926.912170 537.397644,926.629395 524.244080,927.027100 
	C519.260376,927.177795 517.006714,925.081116 515.665710,920.860046 
	C515.039307,918.888245 515.002502,916.104492 512.126099,916.130188 
	C509.673584,916.151978 509.155823,918.665161 508.582581,920.467163 
	C506.962585,925.559570 503.630981,927.308350 498.397766,927.114746 
	C486.078491,926.658936 473.744659,926.602844 461.417511,926.346680 
	C458.144806,926.278625 455.271393,925.737732 453.724823,922.076538 
	C452.484283,919.139893 449.380310,919.483704 446.326019,919.435181 
M489.499939,886.723694 
	C491.332794,886.724731 493.165619,886.725220 494.998474,886.726868 
	C540.148926,886.766296 585.299316,886.820312 630.449768,886.796082 
	C632.381531,886.795044 635.597961,887.812134 635.673706,884.672241 
	C635.749939,881.511658 632.570129,882.582764 630.587280,882.322266 
	C630.259949,882.279236 629.921692,882.320679 629.588501,882.320679 
	C601.431824,882.323669 573.275208,882.332886 545.118530,882.327454 
	C491.804169,882.317261 438.489838,882.289490 385.175507,882.318848 
	C383.188477,882.319946 379.968994,881.393494 379.894958,884.401489 
	C379.818909,887.492798 383.058197,886.409363 385.038940,886.654846 
	C385.860291,886.756653 386.703033,886.691711 387.536041,886.692017 
	C421.190643,886.703430 454.845276,886.713684 489.499939,886.723694 
z"/>
<path fill="#000000" opacity="1.000000" stroke="none" 
	d="
M276.361145,896.213745 
	C268.020538,896.939026 260.031219,897.660278 251.171722,895.624146 
	C256.295959,893.663879 274.178864,893.590210 278.735138,895.135132 
	C278.392670,896.135010 277.454834,895.960266 276.361145,896.213745 
z"/>
<path fill="#000000" opacity="1.000000" stroke="none" 
	d="
M518.026672,201.236969 
	C516.694397,208.067780 518.030029,214.590912 517.278809,221.051514 
	C517.115417,222.456924 518.319214,222.999161 519.195923,223.746124 
	C523.759949,227.634308 525.089600,232.633850 523.207031,238.129593 
	C522.021362,241.590668 522.744995,243.855835 525.500732,245.893051 
	C527.534058,247.396240 529.765442,249.174332 530.032288,251.661514 
	C530.620300,257.141235 534.157715,258.600494 538.724915,260.219513 
	C572.855225,272.318451 591.996582,296.802307 597.417847,332.355530 
	C597.467896,332.684174 597.475830,333.019165 597.525024,333.347961 
	C599.116089,343.978363 599.109314,344.177612 609.984192,344.566956 
	C614.711182,344.736176 614.148010,347.566437 614.271118,350.624268 
	C614.432922,354.644745 613.387207,356.554993 608.700867,356.542114 
	C553.898804,356.391357 499.096100,356.452423 444.293579,356.452881 
	C435.136444,356.452972 425.978607,356.360596 416.822571,356.454529 
	C413.337128,356.490265 411.583557,355.334320 411.634949,351.563477 
	C411.681580,348.140778 411.779449,345.447784 416.245331,344.860962 
	C426.446869,343.520416 426.210968,343.323944 427.892914,333.046570 
	C433.824463,296.803497 454.130402,272.383606 488.703064,259.959290 
	C492.117706,258.732147 494.546051,257.234314 495.156525,253.318344 
	C495.597015,250.492783 496.957336,247.846008 499.671051,246.438507 
	C503.111542,244.654083 503.570587,242.132294 502.750885,238.542068 
	C500.756195,229.805374 502.704498,225.978531 510.952087,221.777084 
	C507.339294,219.391907 508.782745,215.817703 508.587036,212.605103 
	C507.761841,199.058212 509.342773,197.996735 494.919128,198.441864 
	C490.153564,198.588928 490.061615,195.895798 489.878723,192.429535 
	C489.667999,188.435028 491.720703,187.745087 495.077637,187.676376 
	C507.017487,187.431976 507.068695,187.363785 508.000519,175.834305 
	C508.280182,172.373611 509.240814,170.425522 513.358276,170.444855 
	C517.919067,170.466309 517.388367,173.201752 517.383179,176.066376 
	C517.361450,188.132965 516.304382,187.773193 529.048462,187.748169 
	C535.662109,187.735199 535.753601,187.970764 535.476379,194.375412 
	C535.343689,197.440613 534.069824,198.494827 531.188904,198.374146 
	C528.528870,198.262711 525.859741,198.369095 523.194641,198.377197 
	C521.116211,198.383499 519.170776,198.656525 518.026672,201.236969 
M512.190918,275.597412 
	C487.749268,285.401855 482.947266,310.098572 484.517273,329.650208 
	C484.662842,331.462860 485.716492,332.772980 487.772003,332.758453 
	C489.741058,332.744568 490.985596,331.585938 491.208466,329.773529 
	C491.511505,327.309174 491.594543,324.793823 491.507141,322.309662 
	C491.183777,313.121490 492.717926,304.319580 497.596375,296.450684 
	C506.477142,282.126160 519.872253,277.276978 536.115784,278.709930 
	C537.757202,278.854736 540.350098,280.176361 540.773071,277.607452 
	C541.185181,275.103943 538.423523,274.820557 536.564453,274.385559 
	C528.610901,272.524597 520.727722,272.890778 512.190918,275.597412 
M470.345886,287.860840 
	C468.035309,291.537628 464.957886,294.893219 465.594208,299.988586 
	C471.682617,290.593201 478.609344,282.045563 487.800079,275.496033 
	C480.259644,276.868561 475.291321,281.758057 470.345886,287.860840 
z"/>
<path fill="#000000" opacity="1.000000" stroke="none" 
	d="
M663.378601,383.733582 
	C660.597290,382.121368 657.881348,382.898041 655.305725,382.762085 
	C654.868286,377.982483 659.316040,374.959717 664.231750,377.233673 
	C667.307678,378.656555 669.677917,378.819061 672.528931,377.234375 
	C674.164368,376.325409 676.107544,376.491943 677.881958,377.079163 
	C679.877563,377.739563 681.678589,378.907379 681.504028,381.255035 
	C681.294250,384.076385 678.872681,383.112640 677.221436,383.233917 
	C675.402161,383.367554 673.408630,383.057373 671.991821,384.403839 
	C668.973877,387.272064 666.338013,386.280212 663.378601,383.733582 
z"/>
<path fill="#000000" opacity="1.000000" stroke="none" 
	d="
M421.088135,213.703201 
	C418.225555,215.673828 415.790466,216.296188 413.096680,214.037216 
	C411.629456,212.806763 409.637604,213.183929 407.820312,213.190018 
	C406.502869,213.194427 404.994629,213.306747 404.711578,211.519806 
	C404.457336,209.914597 405.145721,208.661255 406.535522,207.744644 
	C408.519684,206.435989 425.625305,206.489304 427.512878,207.833542 
	C428.825012,208.767990 429.692932,210.013657 429.438477,211.601334 
	C429.102417,213.698273 427.299011,213.188171 425.872314,213.262924 
	C424.396515,213.340240 422.922119,213.443665 421.088135,213.703201 
z"/>
<path fill="#000000" opacity="1.000000" stroke="none" 
	d="
M499.414368,570.949158 
	C502.212036,563.286072 507.636353,559.236145 513.907715,559.804626 
	C520.829163,560.432007 524.956360,564.880859 526.625488,573.011658 
	C527.339844,576.491577 527.323975,579.952393 527.314087,583.436218 
	C527.259094,602.737732 527.206360,622.039429 527.065979,641.340332 
	C527.014954,648.342163 526.905457,648.343506 520.145996,648.346313 
	C514.821350,648.348511 509.482483,648.103577 504.176483,648.417419 
	C499.714294,648.681396 498.851501,646.410339 498.853912,642.694580 
	C498.865051,625.390137 498.709503,608.085449 498.761871,590.781311 
	C498.781494,584.306824 498.206635,577.803955 499.414368,570.949158 
z"/>
<path fill="#000000" opacity="1.000000" stroke="none" 
	d="
M560.966858,653.521362 
	C560.661682,655.673401 560.315918,657.706543 558.011536,656.955078 
	C555.399109,656.103271 552.048828,655.237976 551.908142,651.845947 
	C551.521790,642.532837 551.293884,633.193604 552.114197,623.889771 
	C552.327759,621.467468 553.592346,619.259888 556.519409,619.346924 
	C559.433716,619.433594 560.296265,621.539307 560.584229,624.114502 
	C561.662231,633.757690 560.740723,643.424561 560.966858,653.521362 
z"/>
<path fill="#000000" opacity="1.000000" stroke="none" 
	d="
M473.937164,623.683350 
	C474.157104,632.906311 474.233002,641.697876 474.361115,650.488708 
	C474.439209,655.847534 469.919373,655.711914 466.470215,657.571655 
	C465.043579,653.028381 464.946991,648.781067 464.948151,644.539185 
	C464.949951,637.906311 464.923279,631.268921 465.171783,624.643311 
	C465.251129,622.527527 465.996552,620.236450 468.631470,619.756287 
	C471.395844,619.252563 473.020203,620.700806 473.937164,623.683350 
z"/>
<path fill="#000000" opacity="1.000000" stroke="none" 
	d="
M525.376709,424.000183 
	C525.374390,435.998932 525.263611,447.499268 525.434326,458.995392 
	C525.486694,462.519897 524.275574,463.625427 520.812439,463.526489 
	C515.491882,463.374512 510.156586,463.686676 504.828949,463.848541 
	C501.567383,463.947662 499.924316,462.616669 499.922485,459.165222 
	C499.911591,438.335388 499.693115,417.504700 499.830475,396.676178 
	C499.873627,390.131744 503.452484,385.467773 508.459564,383.880249 
	C517.296814,381.078308 525.080811,386.541016 525.310852,396.004425 
	C525.533386,405.164795 525.370300,414.334564 525.376709,424.000183 
z"/>
<path fill="#000000" opacity="1.000000" stroke="none" 
	d="
M465.471436,460.466583 
	C465.427399,463.217957 463.776764,463.425049 462.011902,463.416016 
	C447.107452,463.339783 449.813080,464.793182 449.646179,451.952942 
	C449.460236,437.646149 449.613159,423.334930 449.628387,409.025635 
	C449.630157,407.362488 449.546875,405.680542 449.756958,404.039825 
	C450.417389,398.880920 453.804779,395.563934 458.071716,395.737976 
	C462.472687,395.917450 465.416473,399.215637 465.445465,404.670135 
	C465.543488,423.137054 465.482147,441.604858 465.471436,460.466583 
z"/>
<path fill="#000000" opacity="1.000000" stroke="none" 
	d="
M576.338623,404.415588 
	C576.355530,422.197754 576.202087,439.527405 576.467529,456.850586 
	C576.542969,461.773193 575.244995,463.697205 570.060852,463.496521 
	C559.356201,463.082031 560.685242,464.180054 560.636780,454.053894 
	C560.558716,437.726776 560.587891,421.398743 560.661743,405.071472 
	C560.690979,398.604004 564.898254,394.488739 570.119751,395.811493 
	C574.202026,396.845612 575.884216,400.002655 576.338623,404.415588 
z"/>
<path fill="#000000" opacity="1.000000" stroke="none" 
	d="
M389.170715,635.367126 
	C389.986053,638.351868 390.326538,640.960449 390.317291,643.656250 
	C390.259064,660.648499 390.299774,677.640930 390.248718,694.633179 
	C390.230347,700.755493 389.744659,701.159424 383.654541,701.064148 
	C382.488831,701.045837 381.324097,700.969910 380.158386,700.943542 
	C370.745453,700.730652 370.756012,700.732361 370.765808,691.476135 
	C370.782379,675.816650 370.747650,660.156921 370.821320,644.497742 
	C370.836853,641.197388 370.405365,637.713928 372.066895,634.694214 
	C375.851074,627.816589 384.348907,628.007202 389.170715,635.367126 
z"/>
<path fill="#000000" opacity="1.000000" stroke="none" 
	d="
M654.360291,648.000854 
	C654.368469,664.304810 654.233582,680.111206 654.469360,695.912109 
	C654.540405,700.672791 652.897156,701.866699 648.309448,701.539001 
	C636.010925,700.660767 635.935913,700.847168 636.015869,688.559509 
	C636.108948,674.260559 636.895081,659.967346 636.171875,645.660522 
	C636.021851,642.692993 636.376526,639.679871 636.717285,636.712891 
	C637.095154,633.421997 639.058655,631.182800 642.197937,630.276611 
	C645.775452,629.243896 649.452820,629.176392 652.857727,630.895264 
	C654.142700,631.543884 653.994873,633.213013 654.035950,634.532288 
	C654.170471,638.854370 654.255432,643.178101 654.360291,648.000854 
z"/>
<path fill="#000000" opacity="1.000000" stroke="none" 
	d="
M715.654541,719.984985 
	C715.683167,710.851257 715.637634,702.213989 715.786194,693.580078 
	C715.828552,691.119385 716.091736,688.553833 716.863770,686.239929 
	C717.998413,682.839233 720.552917,680.739258 724.325745,680.708862 
	C728.217041,680.677490 731.072815,682.437073 732.283569,686.215698 
	C732.881775,688.082764 733.269287,690.103333 733.283203,692.057739 
	C733.368469,704.014709 733.205750,715.974304 733.377686,727.929321 
	C733.436035,731.984802 732.072144,733.539551 727.920105,733.395020 
	C714.760803,732.936890 715.772217,735.420715 715.654541,719.984985 
z"/>
<path fill="#000000" opacity="1.000000" stroke="none" 
	d="
M292.701538,705.002563 
	C292.997223,698.884094 291.980682,693.202515 293.517487,687.642212 
	C294.959290,682.425537 297.859680,680.252136 302.828766,680.682861 
	C307.324585,681.072571 310.275055,684.345154 310.319183,689.611328 
	C310.427826,702.569580 310.274323,715.530090 310.383392,728.488342 
	C310.414368,732.166992 308.921570,733.432312 305.328156,733.381836 
	C291.410278,733.186218 292.862640,735.047485 292.739929,721.452026 
	C292.691925,716.135681 292.712036,710.818665 292.701538,705.002563 
z"/>
<path fill="#000000" opacity="1.000000" stroke="none" 
	d="
M155.601929,776.841858 
	C158.770477,776.000244 159.957870,777.825806 160.596634,780.021729 
	C161.195099,782.079163 161.722214,784.244873 161.742584,786.368042 
	C161.841019,796.629883 157.352844,805.357544 153.258392,814.083801 
	C149.959366,813.404236 149.912003,811.493958 150.039108,809.942932 
	C150.771591,801.005066 150.085373,791.948669 152.194656,783.127563 
	C152.737213,780.858521 153.319229,778.577271 155.601929,776.841858 
z"/>
</svg>