<svg version="1.1" id="Layer_1" xmlns="http://www.w3.org/2000/svg" xmlns:xlink="http://www.w3.org/1999/xlink" x="0px" y="0px"
	 width="100%" viewBox="0 0 1024 1024" enable-background="new 0 0 1024 1024" xml:space="preserve">
<path fill="#000000" opacity="1.000000" stroke="none" 
	d="
M293.677551,571.186462 
	C293.756500,573.577393 293.756500,575.558228 293.756500,577.867615 
	C301.029663,578.604492 296.590454,585.222107 298.664703,588.669250 
	C300.538849,589.081116 301.731415,587.996277 302.980865,587.269958 
	C333.082397,569.770508 363.099365,552.123718 393.322479,534.837280 
	C398.336060,531.969666 400.258911,528.704285 400.123566,523.009277 
	C399.755402,507.517548 400.018219,492.011841 399.817078,476.514465 
	C399.762634,472.319824 400.918640,470.691345 405.478424,470.698425 
	C473.810425,470.804901 542.142700,470.729462 610.474915,470.711273 
	C617.058044,470.709534 617.102478,470.770111 617.117371,477.469940 
	C617.152832,493.469604 617.267395,509.470428 617.099854,525.468201 
	C617.057800,529.483521 618.510315,531.814758 621.950928,533.797974 
	C652.837646,551.601501 683.637878,569.555054 714.475830,587.443298 
	C715.749207,588.181946 717.143921,588.711548 718.402710,589.301392 
	C720.308777,587.886047 719.472839,586.078125 719.639404,584.523132 
	C719.915955,581.940430 718.550232,578.597229 723.152222,578.301270 
	C724.465698,578.216797 724.465637,576.606445 724.437500,575.397278 
	C724.157166,563.358093 726.742126,551.592468 727.904358,539.691101 
	C728.986267,528.612732 730.391541,517.565491 731.703979,506.510468 
	C731.917908,504.708252 732.238281,502.889862 732.774963,501.161407 
	C733.629761,498.408569 735.738342,497.176971 738.534119,497.375732 
	C741.557556,497.590607 742.887268,499.766968 743.205200,502.411896 
	C744.969421,517.088074 746.693054,531.770020 748.282715,546.465942 
	C749.318176,556.038025 751.154053,565.524780 751.381592,575.183838 
	C751.401672,576.036377 751.535156,577.101807 752.397888,577.291199 
	C758.630615,578.659119 756.864502,583.971008 755.878540,586.928345 
	C753.778503,593.227234 754.296570,599.474854 754.526489,605.692932 
	C755.265686,625.688965 754.882385,645.684082 754.949341,665.677979 
	C755.051514,696.177124 755.005737,726.677124 754.910156,757.176453 
	C754.857910,773.837463 754.518127,790.497559 754.418030,807.158630 
	C754.367981,815.500000 754.576538,815.601074 762.607605,815.664917 
	C768.648926,815.712952 771.674438,820.699463 769.049866,826.310852 
	C767.919312,828.728088 765.656433,828.023376 763.778076,828.026611 
	C740.112122,828.067200 716.446167,828.055969 692.780151,828.045227 
	C647.614380,828.024780 602.448608,828.002075 557.282837,827.965088 
	C549.172119,827.958496 549.128540,827.924744 549.106140,819.595459 
	C549.019531,787.429749 549.054443,755.263428 548.849854,723.098633 
	C548.770264,710.580933 543.707031,700.147644 534.161621,692.025696 
	C521.864990,681.562988 507.963837,678.941528 493.166565,685.393311 
	C478.469513,691.801270 469.342316,703.369385 468.291534,719.532593 
	C466.117310,752.977356 467.837158,786.499146 467.356171,819.984497 
	C467.341797,820.984314 467.253052,821.996460 467.370880,822.982300 
	C467.817932,826.722534 466.080719,827.986633 462.481384,827.941223 
	C454.483582,827.840210 446.482635,828.027832 438.482941,828.032959 
	C378.484039,828.071106 318.485138,828.093811 258.486237,828.119080 
	C257.152985,828.119629 255.819458,828.107788 254.486588,828.078003 
	C248.570938,827.945740 245.532257,822.263672 248.604172,817.142700 
	C249.832520,815.094971 251.827026,815.750671 253.550354,815.715820 
	C262.651672,815.531616 262.993500,817.298401 262.986542,806.080200 
	C262.943329,736.414368 262.887543,666.748535 263.000732,597.082886 
	C263.008911,592.039124 261.246582,587.260681 261.653992,582.230103 
	C261.819000,580.192627 261.637848,578.154419 264.427094,577.730530 
	C266.686798,577.386963 266.560242,575.556213 266.608398,573.862488 
	C267.101074,556.528503 270.270020,539.495972 272.406799,522.346497 
	C273.208160,515.914978 273.892975,509.468292 274.571503,503.022278 
	C274.907379,499.831390 276.176697,497.598206 279.729279,497.457153 
	C283.539612,497.305817 285.102570,499.662659 285.557159,502.974915 
	C286.483551,509.724915 287.344696,516.484924 288.135742,523.252197 
	C289.987091,539.090027 291.781219,554.934509 293.677551,571.186462 
M558.946533,664.548096 
	C543.416077,648.508057 527.832764,632.518494 512.401306,616.383789 
	C509.442657,613.290344 507.497131,613.109863 504.385529,616.370483 
	C484.602051,637.101196 464.631775,657.653870 444.678589,678.222046 
	C443.519012,679.417358 442.745667,681.523193 440.373566,680.914490 
	C439.352783,679.158569 439.809296,677.287109 439.807983,675.497742 
	C439.766388,617.670471 439.754272,559.843262 439.729431,502.015991 
	C439.728638,500.183960 439.835571,498.320923 439.550476,496.526672 
	C439.017517,493.172119 437.049072,491.060699 433.497406,491.061493 
	C429.951691,491.062317 427.936371,493.117920 427.471313,496.522064 
	C427.202576,498.489227 427.325378,500.514191 427.325134,502.513123 
	C427.313232,602.336548 427.306793,702.159973 427.301849,801.983398 
	C427.301697,804.983032 427.311737,807.982727 427.339722,810.982178 
	C427.354248,812.540100 427.632385,813.888611 429.334869,814.633972 
	C435.205231,817.203979 439.897644,814.307251 439.901306,807.904541 
	C439.920044,774.908264 439.937042,741.911804 439.804016,708.916016 
	C439.790894,705.656616 440.604858,703.104431 442.813782,700.820801 
	C463.663605,679.266113 484.518829,657.716492 505.300446,636.096191 
	C507.754547,633.542969 509.581146,633.719177 511.875641,636.216553 
	C516.383728,641.123291 521.026917,645.908142 525.681091,650.678162 
	C541.155151,666.537415 556.625793,682.400208 572.176147,698.184509 
	C575.745544,701.807617 577.499146,705.697144 577.449646,711.020691 
	C577.192627,738.682312 577.316711,766.347412 577.311829,794.011353 
	C577.310852,799.677429 577.398865,805.344727 577.303284,811.009094 
	C577.254639,813.893799 578.457275,815.220398 581.327271,815.561768 
	C588.462646,816.410278 589.970581,815.081909 589.971497,807.467712 
	C589.983459,705.311646 589.992065,603.155640 589.995789,500.999603 
	C589.995850,499.501007 589.971191,497.999268 589.874023,496.504456 
	C589.669983,493.364258 587.825073,491.639130 584.839844,491.247223 
	C581.614746,490.823914 579.194519,492.212250 578.330383,495.376129 
	C577.723877,497.596832 577.458923,499.978607 577.461426,502.287994 
	C577.525208,561.277283 576.916138,620.267578 577.683167,679.255920 
	C577.695740,680.218750 577.887695,681.312744 575.912354,681.876831 
	C570.572327,676.432068 564.999023,670.749512 558.946533,664.548096 
M315.324860,738.499939 
	C315.320374,747.323853 315.506897,756.153748 315.229950,764.969116 
	C315.093811,769.301880 316.427094,770.965576 320.893219,770.674622 
	C336.685791,769.645691 352.493073,770.797424 368.296448,770.745178 
	C373.355347,770.728394 374.889404,769.221252 374.853088,764.202576 
	C374.661621,737.732483 374.342743,711.249817 374.965027,684.792603 
	C375.312622,670.015320 369.998230,658.434570 358.840424,649.501526 
	C343.738892,637.411194 346.627563,637.128296 331.584930,648.884827 
	C320.567596,657.495422 314.970215,668.740173 315.257812,683.060120 
	C315.622101,701.199829 315.333527,719.352661 315.324860,738.499939 
M650.352661,657.871033 
	C646.334290,663.521423 643.759277,669.639282 642.878540,676.646851 
	C642.057190,683.181946 642.975952,689.611938 642.932373,696.087830 
	C642.779053,718.883179 642.688904,741.678955 642.483704,764.473816 
	C642.445190,768.745483 643.728149,771.034119 648.534180,770.662903 
	C664.330139,769.442627 680.139771,770.156799 695.947998,770.584961 
	C702.680176,770.767395 702.718262,770.609985 702.724365,764.039001 
	C702.750183,736.228455 702.646484,708.417114 702.834778,680.607788 
	C702.888000,672.748962 700.399475,665.945679 696.220520,659.542969 
	C691.367615,652.107666 684.405334,647.035583 677.168823,642.186340 
	C673.903381,639.998291 671.095886,640.155640 668.004333,642.258240 
	C661.650696,646.579529 655.463440,651.072632 650.352661,657.871033 
M467.684204,587.781799 
	C473.532471,598.206787 481.939575,605.694153 493.175323,609.897339 
	C498.023193,611.710876 499.385437,610.936829 500.827850,605.693115 
	C497.122864,604.279480 493.206360,603.246399 489.735901,601.382690 
	C473.055573,592.425537 465.000183,573.704529 469.785706,555.604004 
	C474.593018,537.421082 490.802887,525.356750 509.864319,525.775269 
	C530.279480,526.223572 546.439880,540.871216 549.144165,561.378235 
	C551.593750,579.954285 539.053711,598.572998 520.354004,604.216431 
	C518.503052,604.775024 515.350586,604.458069 516.310974,607.846130 
	C517.193054,610.958069 519.680603,610.941101 522.409119,610.177917 
	C544.734375,603.932861 559.466309,578.770386 554.053162,555.984924 
	C549.708496,537.697021 538.027222,526.012146 520.193848,521.563782 
	C501.608307,516.927734 484.676514,521.540527 472.614655,536.912476 
	C460.673492,552.130615 458.760284,569.303833 467.684204,587.781799 
M349.098145,583.540466 
	C364.835266,574.488953 380.558899,565.413696 396.320465,556.404968 
	C399.649902,554.501953 400.772339,552.280029 398.363647,549.009644 
	C395.920410,549.034241 394.360016,550.436523 392.655884,551.401672 
	C375.992249,560.839478 359.329193,570.279175 342.726746,579.823975 
	C328.435394,588.040161 314.242493,596.427368 299.960938,604.660583 
	C296.769470,606.500427 295.301727,608.714844 297.459076,613.208191 
	C314.888550,603.920471 331.588287,593.755310 349.098145,583.540466 
M721.210266,610.538452 
	C721.814392,607.582092 719.762390,606.443115 717.677979,605.237000 
	C690.319519,589.406494 662.979736,573.543579 635.617493,557.719604 
	C630.210632,554.592773 624.728577,551.596008 619.129333,548.453979 
	C616.681213,554.012451 620.055725,555.956848 623.453979,557.920532 
	C643.046509,569.241699 662.630310,580.578003 682.222473,591.899841 
	C694.034729,598.726013 705.848633,605.549377 717.684814,612.333862 
	C719.156738,613.177551 721.154724,614.890137 721.210266,610.538452 
M494.193726,573.992126 
	C494.766693,573.265991 495.946899,572.843506 495.279327,571.177063 
	C489.697540,571.120300 483.991302,570.724426 478.387177,573.292236 
	C478.759338,574.547058 478.953674,575.519165 479.328674,576.415710 
	C481.857178,582.461182 483.171814,582.789490 488.194946,578.738098 
	C490.009033,577.274963 491.858856,575.856140 494.193726,573.992126 
M526.919128,571.144531 
	C525.488708,571.120239 523.912354,570.527039 522.601135,572.614258 
	C525.422119,575.916199 529.222656,578.229309 532.676514,580.917236 
	C533.781311,581.777039 534.934814,581.428284 535.705688,580.343140 
	C537.126526,578.342957 539.198669,576.322449 538.296204,573.699585 
	C537.476257,571.316467 534.903137,571.427917 532.741943,571.341003 
	C531.086548,571.274353 529.429382,571.251282 526.919128,571.144531 
M522.653748,544.172058 
	C524.526917,541.884949 525.808105,539.509216 522.037842,537.954285 
	C519.840637,537.048096 516.905212,534.604553 515.349915,538.457886 
	C513.619080,542.746094 513.905029,547.297180 515.111938,552.317322 
	C518.646790,550.199036 520.032776,547.080200 522.653748,544.172058 
M502.901398,590.341919 
	C502.852112,586.689819 504.840851,582.917664 502.305725,579.048584 
	C498.828094,581.409058 497.527130,585.198425 495.059174,588.008118 
	C494.008331,589.204529 492.672668,590.733032 494.262787,592.377502 
	C496.047729,594.223450 498.430145,595.363708 500.949615,595.173706 
	C503.230896,595.001648 502.563904,592.689453 502.901398,590.341919 
M524.818848,557.253540 
	C523.919495,558.245544 521.937073,558.384094 522.330322,560.834778 
	C526.585571,560.735535 530.832581,561.067017 535.017090,559.881226 
	C536.593506,559.434509 538.503418,559.236572 538.540955,557.062195 
	C538.580566,554.768982 537.247803,552.970642 535.661499,551.498474 
	C533.929688,549.891235 532.657288,551.531433 531.371765,552.454285 
	C529.358643,553.899475 527.381592,555.394775 524.818848,557.253540 
M478.907501,556.189941 
	C478.377625,557.601196 478.377899,558.991333 480.075623,559.409058 
	C484.846893,560.583191 489.666321,561.446777 495.100983,560.425049 
	C493.066681,556.817078 489.724365,555.436035 487.065247,553.356018 
	C482.054504,549.436462 481.977386,549.519897 478.907501,556.189941 
M511.356049,570.671997 
	C512.854675,569.708313 513.590332,568.284546 513.853760,566.565674 
	C514.239441,564.049316 513.556335,561.992004 511.359680,560.537292 
	C509.702332,559.439758 508.091431,559.140320 506.289581,560.324219 
	C504.161957,561.722290 502.849670,563.587769 503.231720,566.124023 
	C503.877136,570.408691 506.563446,571.908630 511.356049,570.671997 
M496.232025,545.393372 
	C498.148712,547.006775 498.572815,550.252502 501.962921,550.590088 
	C505.070129,547.158569 502.545929,543.349487 502.653076,539.782532 
	C502.750214,536.549377 500.768463,535.944641 498.019623,536.631287 
	C492.784332,537.938965 492.078674,540.504028 496.232025,545.393372 
M519.912537,584.587280 
	C518.549744,583.005737 517.886780,580.727173 515.327698,580.011780 
	C513.420227,582.388550 514.466492,585.128845 514.389404,587.638672 
	C514.310608,590.202698 513.588623,593.420349 516.891907,594.528137 
	C519.908936,595.539856 522.240051,593.720642 524.211121,591.686646 
	C523.811279,588.773010 521.748779,587.151428 519.912537,584.587280 
z"/>
<path fill="#000000" opacity="1.000000" stroke="none" 
	d="
M431.000000,463.177673 
	C422.169312,463.145325 413.836487,462.986115 405.508728,463.127258 
	C400.408722,463.213684 400.067963,460.136169 400.017609,456.256195 
	C399.964386,452.156708 401.655579,450.403900 405.733002,450.891571 
	C406.717621,451.009338 407.739014,450.803864 408.728241,450.901550 
	C413.206512,451.343597 414.808136,449.551636 414.777405,444.893951 
	C414.593781,417.069733 414.694061,389.243683 414.693878,361.418243 
	C414.693787,351.087830 414.712708,340.757263 414.654480,330.427124 
	C414.633240,326.660797 414.507324,323.071594 413.045532,319.285675 
	C411.648529,315.667480 410.353790,310.757568 415.702179,308.030334 
	C416.810852,307.465057 416.559387,305.977875 416.705811,304.826477 
	C419.346466,284.059113 422.021515,263.296082 424.645569,242.526611 
	C425.053558,239.297485 425.992920,236.416931 429.767365,236.275787 
	C433.376251,236.140823 435.156158,238.522385 435.580658,241.897141 
	C436.865662,252.112656 438.070404,262.338226 439.341522,272.555511 
	C440.695038,283.435150 442.050110,294.315033 443.507507,305.180969 
	C443.720734,306.770721 444.065033,308.469940 445.562531,309.949951 
	C448.442200,308.682434 449.758026,305.848938 451.352722,303.506989 
	C467.946625,279.137238 484.424500,254.688416 500.934174,230.261292 
	C501.970459,228.728088 502.975800,227.156433 502.702850,225.194321 
	C501.248535,214.739853 502.090546,204.234848 502.078339,193.754715 
	C502.073608,189.701920 500.723206,187.969360 496.545013,188.323242 
	C493.068634,188.617676 489.551605,188.409897 486.053589,188.476654 
	C481.727417,188.559219 479.365509,186.270447 479.350311,182.154968 
	C479.335083,178.029617 481.778168,175.746124 486.017242,175.702332 
	C489.682434,175.664459 493.359100,175.513062 497.011139,175.734253 
	C501.252472,175.991165 503.183258,174.813004 502.430054,170.058563 
	C501.919342,166.834808 502.467651,163.429810 502.656952,160.112396 
	C502.852356,156.687042 505.042725,155.049896 508.196381,154.808319 
	C511.372650,154.565033 513.641052,156.000305 514.555664,159.226105 
	C515.670166,163.157120 515.222534,167.186569 515.130005,171.154724 
	C515.047302,174.703445 516.435608,175.903015 519.845154,175.719955 
	C523.499939,175.523727 527.178406,175.570175 530.838257,175.718033 
	C535.247131,175.896179 538.170410,178.764862 537.949707,182.427521 
	C537.720093,186.237900 534.700684,188.711929 530.357910,188.625565 
	C527.028259,188.559357 523.692444,188.573593 520.371338,188.362961 
	C516.479431,188.116104 515.053528,189.944229 514.964844,193.678864 
	C514.715942,204.157227 515.795410,214.651123 514.549988,225.125870 
	C514.412659,226.281052 515.197693,227.699203 515.892761,228.777649 
	C533.310669,255.803116 551.810303,282.097839 569.928101,308.650665 
	C570.389221,309.326447 570.920837,309.992371 572.434814,309.912964 
	C574.674500,303.470551 574.651855,296.458862 575.615784,289.666656 
	C577.833374,274.041412 579.698853,258.365845 581.661621,242.705002 
	C582.096619,239.234573 583.322754,236.384842 587.273376,236.281464 
	C591.340210,236.175034 592.680664,239.306870 593.086792,242.566971 
	C594.934692,257.402405 596.608154,272.259674 598.318237,287.112091 
	C599.039795,293.378510 599.675354,299.654907 600.411316,305.919525 
	C600.502686,306.697327 600.755920,307.827240 601.299561,308.123505 
	C606.859070,311.153259 604.354980,316.050262 603.604370,320.016022 
	C603.153442,322.398529 602.366821,324.743927 602.366516,327.238861 
	C602.361450,366.227722 602.350525,405.216583 602.349854,444.205444 
	C602.349731,450.706116 602.377380,450.539459 609.023071,450.877350 
	C612.248474,451.041382 616.851135,449.117401 617.173462,455.274475 
	C617.542908,462.334015 617.042236,463.078247 609.948425,463.083466 
	C550.465637,463.127289 490.982819,463.149078 431.000000,463.177673 
M528.005188,367.463501 
	C522.340515,364.444733 516.306641,362.580475 509.894592,362.420502 
	C485.529694,361.812622 464.420502,382.321442 467.155334,409.130493 
	C469.950958,436.535309 500.723419,454.755768 525.483154,442.886169 
	C540.459473,435.706665 549.509888,423.542786 550.441589,406.986847 
	C551.405151,389.864075 544.055481,376.354279 528.005188,367.463501 
M584.394470,334.259979 
	C586.666504,329.122070 586.015503,328.173767 579.983948,328.174164 
	C532.346130,328.177185 484.708344,328.200256 437.070526,328.217651 
	C436.570862,328.217834 436.070648,328.240662 435.571594,328.224915 
	C433.358032,328.155121 431.604218,328.560059 431.500488,331.353699 
	C431.384644,334.473480 433.370911,334.851807 435.738525,334.873596 
	C437.237488,334.887390 438.736420,334.921906 440.235352,334.921417 
	C469.884003,334.911713 499.532745,334.931854 529.181335,334.873169 
	C547.330994,334.837250 565.480469,334.679169 584.394470,334.259979 
M576.473083,442.777161 
	C577.088623,444.925201 577.008850,448.055176 580.316101,447.494324 
	C583.094421,447.023132 582.525269,444.212616 582.637634,442.104645 
	C582.655334,441.772583 582.648743,441.439056 582.648743,441.106232 
	C582.649841,418.805206 582.667175,396.504150 582.628296,374.203186 
	C582.623840,371.653503 583.334290,367.848816 579.812805,367.759186 
	C575.909363,367.659821 577.080139,371.702026 577.048767,374.046539 
	C576.745850,396.670776 576.609314,419.297272 576.473083,442.777161 
M440.659058,400.500061 
	C440.664307,391.343933 440.697357,382.187714 440.655212,373.031799 
	C440.644714,370.749390 440.920959,367.656525 437.678833,367.762634 
	C434.714844,367.859711 435.276062,370.862854 435.274506,372.934998 
	C435.257080,396.074951 435.265015,419.214966 435.325836,442.354767 
	C435.331543,444.526398 434.592865,447.692200 438.182312,447.550537 
	C441.320831,447.426636 440.627960,444.480286 440.635834,442.452728 
	C440.688934,428.802032 440.660736,415.151001 440.659058,400.500061 
z"/>
<path fill="#000000" opacity="1.000000" stroke="none" 
	d="
M367.000000,836.881592 
	C496.824951,836.882019 626.149902,836.886047 755.474854,836.882629 
	C764.307190,836.882385 773.141052,836.716370 781.971130,836.843262 
	C786.512817,836.908447 789.942810,839.919922 790.110657,843.426331 
	C790.287231,847.116760 786.855408,850.447205 782.270264,850.958496 
	C780.949341,851.105774 779.608643,851.107971 778.276550,851.116211 
	C775.110229,851.135803 771.943665,851.117493 768.777222,851.117554 
	C592.622070,851.122192 416.466888,851.129150 240.311737,851.110352 
	C237.995041,851.110107 235.589554,851.116943 233.382370,850.530273 
	C230.006271,849.632996 227.843719,847.170898 228.059082,843.580200 
	C228.270081,840.062500 230.396805,837.738403 234.029800,837.228943 
	C235.834641,836.975769 237.680359,836.933777 239.507660,836.932617 
	C281.838440,836.904907 324.169220,836.895935 367.000000,836.881592 
z"/>
<path fill="#000000" opacity="1.000000" stroke="none" 
	d="
M480.747375,818.912964 
	C480.756836,790.802246 480.756073,763.177979 480.784424,735.553711 
	C480.791229,728.909912 480.877808,728.835510 487.459900,728.823242 
	C501.771210,728.796692 516.085632,728.971802 530.392151,728.706665 
	C535.106384,728.619324 536.370178,730.355164 536.350708,734.806763 
	C536.223328,763.928162 536.212036,793.051086 536.414856,822.171753 
	C536.445679,826.603027 535.060120,827.890686 530.768799,827.841919 
	C516.960205,827.684875 503.147522,827.924866 489.336548,827.905945 
	C480.784210,827.894226 480.784332,827.807983 480.747375,818.912964 
z"/>
<path fill="#000000" opacity="1.000000" stroke="none" 
	d="
M543.999878,874.417725 
	C499.166992,874.419800 454.834076,874.421204 410.501190,874.421570 
	C406.508148,874.421570 402.510681,874.530518 398.523285,874.378723 
	C394.669922,874.232117 392.028076,872.245850 392.104858,868.221741 
	C392.183899,864.081848 394.842499,861.986511 398.910522,861.722473 
	C400.238770,861.636292 401.576111,861.681274 402.909271,861.681091 
	C487.741791,861.671082 572.574280,861.662354 657.406799,861.656799 
	C659.072998,861.656677 660.751770,861.574646 662.402954,861.743225 
	C666.193970,862.130066 668.948669,864.241150 668.833862,868.058533 
	C668.717590,871.922607 666.359192,874.446655 661.998718,874.424316 
	C651.832397,874.372192 641.665710,874.407471 631.499146,874.408325 
	C602.499390,874.410828 573.499695,874.413879 543.999878,874.417725 
z"/>
<path fill="#000000" opacity="1.000000" stroke="none" 
	d="
M489.056824,704.075684 
	C497.292053,695.922363 506.768036,693.434998 517.275085,697.256836 
	C527.602661,701.013367 533.738037,708.639221 535.627136,719.673950 
	C536.220032,723.137146 535.161377,724.239563 531.883118,724.230286 
	C516.556030,724.187134 501.228455,724.171936 485.901764,724.264404 
	C482.374634,724.285706 481.121033,722.916443 481.624359,719.429993 
	C482.462524,713.623962 485.016693,708.701294 489.056824,704.075684 
z"/>
<path fill="#000000" opacity="1.000000" stroke="none" 
	d="
M377.710571,868.075806 
	C376.875610,872.725891 374.287903,874.480347 369.935486,874.423706 
	C359.806305,874.291870 349.673737,874.447449 339.542999,874.395935 
	C334.221832,874.368896 331.730774,872.295288 331.735321,868.185974 
	C331.739960,863.969971 334.219513,861.760803 339.409851,861.716797 
	C349.540222,861.630920 359.671753,861.683899 369.802826,861.675537 
	C373.969940,861.672119 376.817719,863.388062 377.710571,868.075806 
z"/>
<path fill="#000000" opacity="1.000000" stroke="none" 
	d="
M282.789612,864.461731 
	C282.957581,875.170410 280.690674,876.859192 270.488159,874.322205 
	C268.716370,873.881653 267.823700,872.896606 267.888672,871.236450 
	C268.002075,868.338989 266.589386,865.100403 268.931885,862.644714 
	C270.854523,860.629089 280.399902,861.791992 282.789612,864.461731 
z"/>
<path fill="#000000" opacity="1.000000" stroke="none" 
	d="
M744.109497,874.462769 
	C742.360718,874.438293 741.014648,874.264099 739.713806,874.434753 
	C734.847351,875.073181 732.986084,872.880188 733.657837,868.210938 
	C733.965759,866.070862 732.594666,862.858521 735.625671,862.229919 
	C739.589172,861.407776 744.282471,860.252869 747.638062,862.781128 
	C750.479004,864.921631 748.506531,869.011841 748.261292,872.239502 
	C748.085022,874.559509 746.221130,874.462585 744.109497,874.462769 
z"/>
<path fill="#000000" opacity="1.000000" stroke="none" 
	d="
M690.200928,862.286804 
	C693.929993,864.754272 695.106995,867.715881 692.878845,871.349182 
	C690.922668,874.538879 687.887634,875.635315 684.331970,874.473755 
	C680.886475,873.348083 679.397583,870.694519 679.842651,867.155640 
	C680.385376,862.840820 683.676697,861.243347 690.200928,862.286804 
z"/>
<path fill="#000000" opacity="1.000000" stroke="none" 
	d="
M340.604126,660.591309 
	C343.728485,656.359070 346.133698,656.782898 349.447479,660.334717 
	C357.043488,668.476318 362.097595,677.377075 361.011810,688.958679 
	C360.733307,691.928955 361.008453,694.949402 360.994843,697.946716 
	C360.962738,705.004456 360.658447,705.082214 353.730988,705.293091 
	C349.296448,705.428162 347.294128,704.097168 347.601776,699.367371 
	C347.914429,694.560120 347.641968,689.714111 347.603760,684.885193 
	C347.586395,682.692932 347.261139,680.645935 345.032867,679.627441 
	C342.725800,681.018433 343.310211,683.039978 343.277100,684.750977 
	C343.170746,690.244141 343.178070,695.740540 343.222961,701.235107 
	C343.247894,704.286316 341.613037,705.541077 338.836365,705.223206 
	C335.653625,704.858826 330.418396,706.883057 330.092041,702.101807 
	C329.088379,687.395935 327.281189,672.172485 340.604126,660.591309 
z"/>
<path fill="#000000" opacity="1.000000" stroke="none" 
	d="
M337.496521,734.621399 
	C342.086517,733.933228 343.574707,735.745422 343.290100,739.849060 
	C343.015869,743.803101 343.137878,747.791748 343.229279,751.761841 
	C343.300720,754.865906 342.054688,756.423767 338.837494,756.230103 
	C337.021790,756.120789 335.198486,756.125793 333.378357,756.104492 
	C330.911957,756.075562 329.784210,754.795776 329.776978,752.379944 
	C329.766571,748.904236 329.712402,745.428711 329.697479,741.953003 
	C329.666656,734.760864 329.672241,734.760864 337.496521,734.621399 
z"/>
<path fill="#000000" opacity="1.000000" stroke="none" 
	d="
M360.445557,737.177856 
	C360.638977,742.246521 360.744415,746.900879 360.910095,751.553101 
	C361.079529,756.309326 357.916321,756.394653 354.531464,756.149109 
	C351.399384,755.921936 347.393463,757.076233 347.625671,751.590393 
	C347.773407,748.100159 347.507141,744.589966 347.711609,741.105469 
	C347.836456,738.977600 346.464447,735.494873 349.481049,735.139221 
	C353.036896,734.720032 357.341888,732.576965 360.445557,737.177856 
z"/>
<path fill="#000000" opacity="1.000000" stroke="none" 
	d="
M343.279236,721.947388 
	C343.247620,730.044922 339.909729,732.324707 332.344482,730.052246 
	C330.307678,729.440369 329.885406,728.028076 329.856598,726.278870 
	C329.788147,722.126953 329.833069,717.972351 329.712341,713.822327 
	C329.626740,710.880981 330.880859,709.500061 333.852936,709.648560 
	C335.176483,709.714722 336.516479,709.710327 337.834229,709.583801 
	C341.859283,709.197510 343.682343,710.830627 343.272217,714.988647 
	C343.061401,717.125793 343.262878,719.303528 343.279236,721.947388 
z"/>
<path fill="#000000" opacity="1.000000" stroke="none" 
	d="
M357.564423,730.083618 
	C346.170990,730.166016 347.795746,730.414856 347.656982,720.749207 
	C347.637848,719.416443 347.646423,718.083252 347.647980,716.750244 
	C347.656189,709.717834 347.669525,709.959412 354.777679,709.585876 
	C359.354095,709.345398 361.107330,710.671997 360.531006,715.438538 
	C360.136658,718.699646 360.836395,722.078857 360.786469,725.401306 
	C360.757446,727.335754 360.705353,729.561890 357.564423,730.083618 
z"/>
<path fill="#000000" opacity="1.000000" stroke="none" 
	d="
M688.346558,702.243164 
	C685.747986,707.608154 681.310913,704.948669 677.769226,704.976746 
	C674.581970,705.002014 674.989014,701.775391 674.926086,699.542175 
	C674.795044,694.889832 674.903625,690.230957 674.790344,685.577759 
	C674.748047,683.840149 675.206360,681.830383 673.028748,680.559082 
	C670.427063,681.279114 671.046082,683.604858 670.952820,685.391052 
	C670.675659,690.699585 670.405518,696.018982 670.458679,701.330872 
	C670.499878,705.453125 667.822388,705.929749 664.873108,705.914246 
	C661.656006,705.897400 657.440552,706.558594 657.097046,701.832458 
	C655.988708,686.582458 655.490173,671.463257 668.511963,659.886047 
	C671.563171,657.173279 673.398438,656.248352 676.606567,659.591064 
	C684.250732,667.555725 690.010376,676.051697 688.442261,687.875000 
	C687.833069,692.468750 689.164856,697.156799 688.346558,702.243164 
z"/>
<path fill="#000000" opacity="1.000000" stroke="none" 
	d="
M666.885742,734.578003 
	C669.716858,734.550354 670.392822,735.949219 670.369995,738.092773 
	C670.318970,742.889099 670.304688,747.686646 670.354248,752.482788 
	C670.382690,755.232178 669.053162,756.380371 666.395752,756.281494 
	C664.578186,756.213867 662.757202,756.196350 660.938293,756.214661 
	C658.204529,756.242188 657.063843,754.737549 657.016113,752.194763 
	C656.944641,748.391418 657.122681,744.570007 656.810730,740.787964 
	C656.422485,736.079224 658.144348,733.932556 662.992310,734.603149 
	C664.124878,734.759827 665.303772,734.581726 666.885742,734.578003 
z"/>
<path fill="#000000" opacity="1.000000" stroke="none" 
	d="
M674.883362,738.249146 
	C676.970581,731.687988 681.921082,735.355713 685.481873,734.914551 
	C689.025269,734.475525 688.220276,737.867859 688.285522,740.018738 
	C688.401306,743.833191 688.180115,747.661743 688.388733,751.468567 
	C688.595276,755.237183 686.922058,756.599670 683.354065,756.234924 
	C682.037354,756.100281 680.698547,756.096924 679.373657,756.142944 
	C676.252686,756.251465 674.787292,754.801697 674.829224,751.669373 
	C674.887024,747.354614 674.853882,743.038635 674.883362,738.249146 
z"/>
<path fill="#000000" opacity="1.000000" stroke="none" 
	d="
M670.369385,724.882812 
	C671.011658,730.497314 667.707397,730.494385 664.098083,730.293152 
	C660.657837,730.101379 656.730469,730.922607 656.957947,725.345337 
	C657.106689,721.697693 657.083984,718.028870 656.879028,714.384155 
	C656.554199,708.608521 660.610779,709.183167 664.259155,709.039429 
	C668.020935,708.891235 670.821350,709.597290 670.393127,714.434021 
	C670.101318,717.729919 670.357605,721.074219 670.369385,724.882812 
z"/>
<path fill="#000000" opacity="1.000000" stroke="none" 
	d="
M680.127808,730.226624 
	C676.312805,730.586243 674.731812,729.156738 674.833008,725.722412 
	C674.949890,721.754883 674.937256,717.782166 674.911194,713.812134 
	C674.892639,710.993347 675.968811,709.439087 679.029846,709.654785 
	C680.673584,709.770691 682.339844,709.727539 683.986084,709.613770 
	C687.135620,709.395996 688.542053,710.673096 688.332886,713.936096 
	C688.153320,716.736084 688.324219,719.558411 688.335999,722.370850 
	C688.369263,730.310974 688.368469,730.310974 680.127808,730.226624 
z"/>
<path fill="#000000" opacity="1.000000" stroke="none" 
	d="
M490.988647,396.603943 
	C491.628326,396.603516 491.794617,396.602936 491.960907,396.603210 
	C502.597412,396.620422 502.562775,396.621490 502.229248,385.822937 
	C502.168121,383.844116 502.407410,381.836517 502.699524,379.870667 
	C503.174255,376.675476 504.960876,374.748138 508.357422,374.734436 
	C511.567047,374.721527 513.736572,376.157440 514.560547,379.379120 
	C515.526367,383.155243 515.141296,387.011322 514.979309,390.801910 
	C514.784546,395.358459 517.068604,396.693634 521.047180,396.509338 
	C524.033081,396.371063 527.022034,396.054260 530.003235,396.117096 
	C534.131958,396.204071 537.235352,397.935883 537.301514,402.538757 
	C537.365601,406.994141 534.493286,408.326263 530.438354,408.614532 
	C527.090393,408.852509 523.801941,408.578308 520.486450,408.464630 
	C516.898315,408.341522 514.800171,409.702606 515.007812,413.704834 
	C515.197144,417.354401 515.118835,421.017883 515.155518,424.675293 
	C515.219360,431.047760 512.797913,434.454346 508.356079,434.245148 
	C504.115112,434.045410 502.400055,431.174805 502.503021,424.536865 
	C502.554565,421.212189 502.556335,417.886566 502.558563,414.561371 
	C502.561127,410.755676 500.982697,408.651581 496.834839,408.915131 
	C493.853455,409.104614 490.845703,409.078003 487.859009,408.942535 
	C482.348358,408.692566 479.452026,406.303619 479.755615,402.230072 
	C480.145050,397.004272 483.890381,396.467926 488.020966,396.598511 
	C488.851593,396.624786 489.683777,396.603516 490.988647,396.603943 
z"/>
</svg>