<svg version="1.1" id="Layer_1" xmlns="http://www.w3.org/2000/svg" xmlns:xlink="http://www.w3.org/1999/xlink" x="0px" y="0px"
	 width="100%" viewBox="0 0 1024 1024" enable-background="new 0 0 1024 1024" xml:space="preserve">
<path fill="#000000" opacity="1.000000" stroke="none" 
	d="
M149.000000,905.340820 
	C130.667145,905.341187 112.834267,905.348816 95.001404,905.336548 
	C89.072136,905.332520 86.064804,903.269470 85.912384,899.176453 
	C85.759758,895.077881 89.297997,891.919312 94.897179,891.835327 
	C106.394073,891.662842 117.895317,891.788391 129.394730,891.766479 
	C131.038879,891.763306 132.682785,891.621887 135.250229,891.501038 
	C127.927643,882.576233 123.140182,872.734741 133.045227,864.431763 
	C143.737793,855.468567 151.521332,864.143433 158.995209,873.154297 
	C159.112411,868.297180 157.075027,865.666809 154.786682,863.556946 
	C149.033356,858.252380 148.921265,852.339966 152.387054,845.988342 
	C156.085663,839.210205 162.155792,835.841125 169.687363,836.242126 
	C182.888626,836.944885 191.434158,850.516174 186.962585,862.982056 
	C186.161118,865.216492 184.643127,867.313354 185.144897,870.363647 
	C188.051636,869.056274 188.740921,866.511475 190.055099,864.528503 
	C193.240494,859.722107 197.290771,856.151489 203.328857,855.889404 
	C211.037628,855.554932 216.226273,860.955444 216.338394,869.140015 
	C216.426910,875.601379 216.426880,875.628662 222.968887,875.636292 
	C247.467926,875.664673 271.967773,875.577698 296.465393,875.774414 
	C301.130249,875.811890 302.912598,874.531921 302.903625,869.604980 
	C302.812439,819.607361 302.926605,769.609375 302.962219,719.611450 
	C302.967010,712.892700 302.351166,712.275269 295.416718,712.320618 
	C270.942749,712.480713 246.469315,712.714478 221.995377,712.875610 
	C217.167221,712.907410 212.330826,712.542786 207.510574,712.712402 
	C200.468552,712.960144 200.299850,713.266113 200.285080,720.261719 
	C200.209091,756.260559 200.136215,792.259399 200.070999,828.258240 
	C200.061035,833.757690 200.044205,839.258057 200.124039,844.756653 
	C200.233734,852.313354 200.271942,852.312805 192.538803,854.226746 
	C191.239685,853.024109 191.092789,851.335388 190.723190,849.733887 
	C188.135223,838.520203 178.575775,831.539978 166.768463,832.235474 
	C155.992371,832.870300 147.671005,840.917908 146.382980,852.035583 
	C146.100357,854.475220 146.671417,857.214600 142.746414,857.226196 
	C139.720764,857.235107 138.275848,856.659302 138.457581,853.029968 
	C139.035278,841.492554 144.342468,832.951721 154.386749,827.667603 
	C165.617111,821.759338 176.536377,823.153748 186.857361,830.534851 
	C188.474762,829.506531 187.730331,827.859070 187.730743,826.539062 
	C187.743591,785.040283 187.706009,743.541443 187.663589,702.042664 
	C187.657166,695.758118 187.269974,695.429077 180.731857,695.401428 
	C177.268570,695.386841 173.774841,695.916931 170.125153,694.937805 
	C169.388458,691.989197 170.661240,689.363464 171.535477,686.787720 
	C184.004318,650.051941 196.624390,613.367249 208.966400,576.589111 
	C210.485199,572.063171 213.547302,572.563049 216.791183,572.563965 
	C245.290176,572.571960 273.789185,572.609558 302.288177,572.636963 
	C308.634583,572.643066 308.659546,572.640442 308.663147,566.219177 
	C308.676544,542.219788 308.557281,518.219360 308.772766,494.221893 
	C308.815155,489.502808 307.219849,487.899506 302.712830,488.342773 
	C300.240814,488.585846 297.705627,488.481964 295.224091,488.256866 
	C292.196045,487.982208 290.146057,486.123871 290.062622,483.125092 
	C289.982910,480.261414 291.439758,478.109314 294.660004,477.515167 
	C297.480438,476.994781 300.351990,476.583801 303.101532,477.194824 
	C307.869812,478.254578 309.030304,476.163910 308.722839,471.909119 
	C308.495239,468.759735 308.618713,465.577026 308.722382,462.413666 
	C308.838623,458.864990 310.699493,456.815674 314.321686,456.739532 
	C318.305359,456.655823 319.401672,459.180756 319.376740,462.635345 
	C319.350311,466.301544 319.382111,469.968109 319.370422,473.634460 
	C319.362518,476.114349 320.466705,477.208893 323.049316,477.161835 
	C326.871613,477.092194 330.706146,477.189362 334.522095,477.428436 
	C337.794128,477.633392 340.065460,479.600769 339.908661,482.830902 
	C339.748138,486.137848 337.539520,488.258881 333.953674,488.320404 
	C330.621429,488.377594 327.284332,488.448212 323.955627,488.332489 
	C320.524261,488.213226 319.186218,489.674316 319.329376,493.121948 
	C319.640350,500.610596 319.876617,508.109436 319.855438,515.603271 
	C319.809296,531.930176 319.526245,548.256348 319.455231,564.583313 
	C319.421417,572.357056 319.833466,572.652161 327.658722,572.654663 
	C345.158264,572.660278 362.658203,572.594238 380.156952,572.711609 
	C383.686432,572.735291 386.625977,571.828003 389.382202,569.664246 
	C393.574432,566.373291 397.792725,563.086121 402.235199,560.153687 
	C405.103577,558.260376 405.997925,555.993164 405.971466,552.664795 
	C405.819092,533.499939 405.850189,514.333557 405.836060,495.167725 
	C405.833435,491.594604 405.662354,488.032898 410.746460,487.483154 
	C413.258484,487.211487 412.738678,484.749847 412.754486,483.011414 
	C412.819763,475.845520 412.770508,468.678680 412.807465,461.512421 
	C412.840210,455.160339 414.137390,453.809845 420.328674,453.727020 
	C430.478333,453.591278 429.659210,455.233337 429.664886,444.364014 
	C429.680847,413.698120 429.679840,383.032196 429.678009,352.366302 
	C429.677612,345.607544 429.663391,345.607544 422.955933,345.242767 
	C417.571777,344.949951 416.604736,343.329620 419.307495,338.187347 
	C432.249939,313.562866 445.312622,289.001648 458.295013,264.398132 
	C473.919708,234.787033 489.494781,205.149719 505.134308,175.546463 
	C506.265564,173.405167 506.714264,171.237457 506.706085,168.845795 
	C506.662750,156.179626 506.519318,143.509552 506.787903,130.848831 
	C506.883820,126.328362 505.255035,124.915436 500.976807,125.281723 
	C497.669006,125.564941 494.312347,125.414864 490.984100,125.285583 
	C487.381653,125.145638 485.370422,123.015251 485.442505,119.527969 
	C485.513123,116.112274 487.735046,114.595444 491.121490,114.646950 
	C494.453705,114.697639 497.808472,114.395721 501.115753,114.682426 
	C505.629791,115.073746 507.046631,113.118355 506.732300,108.857178 
	C506.463318,105.210930 506.711548,101.528160 506.686371,97.861847 
	C506.661346,94.224129 508.558228,92.053810 512.040833,91.940842 
	C515.766663,91.819977 517.265320,94.372612 517.316406,97.834541 
	C517.372986,101.667015 517.514954,105.510193 517.303284,109.331184 
	C517.106384,112.886513 518.652344,114.035805 522.012939,113.976021 
	C525.830444,113.908104 529.666931,114.083450 533.472717,114.412613 
	C536.996521,114.717384 539.072632,116.860001 538.699158,120.421631 
	C538.356506,123.690475 536.003296,125.275589 532.762329,125.334457 
	C528.930481,125.404053 525.095947,125.412430 521.263977,125.354462 
	C518.563232,125.313606 517.316162,126.458405 517.325867,129.232727 
	C517.374695,143.232056 517.343872,157.231659 517.358398,171.231155 
	C517.361145,173.858948 518.848022,175.982849 520.000122,178.162384 
	C545.769348,226.913010 571.579468,275.642090 597.384338,324.373871 
	C600.034180,329.378082 602.698486,334.374634 605.358826,339.373260 
	C607.276184,342.975800 605.862976,344.677307 602.120972,345.016998 
	C601.126587,345.107269 600.116211,345.194000 599.125427,345.119446 
	C595.549438,344.850220 594.115356,346.294403 594.127075,350.031128 
	C594.230286,383.029938 594.233276,416.029266 594.140381,449.028107 
	C594.129700,452.838684 595.679993,453.804413 599.226746,453.817810 
	C610.971313,453.862213 610.956238,453.972748 610.978394,465.676422 
	C610.989441,471.509094 611.046204,477.341888 611.123535,483.174103 
	C611.145630,484.839172 611.068481,486.951538 613.064331,487.344391 
	C617.745544,488.265839 617.350342,491.677246 617.347900,495.048584 
	C617.334473,513.881409 617.417419,532.714905 617.265991,551.546570 
	C617.237610,555.070801 618.652771,557.099976 621.111511,559.532349 
	C632.160339,570.462830 644.984070,574.359314 660.489075,572.872742 
	C673.039795,571.669434 685.800293,572.495178 698.462952,572.708557 
	C702.706299,572.779968 703.923706,571.124146 703.902100,567.128723 
	C703.769348,542.630127 703.729980,518.130188 703.847473,493.631683 
	C703.867432,489.461182 702.420776,487.945343 698.312012,488.288513 
	C695.170776,488.550812 691.973816,488.434387 688.822449,488.203003 
	C685.795288,487.980682 683.833374,486.258911 683.779602,483.077362 
	C683.727722,480.006378 685.317078,478.155029 688.425598,477.545074 
	C691.736450,476.895355 695.100952,476.720642 698.380737,477.146942 
	C703.014282,477.749237 704.300598,475.823792 703.885742,471.544312 
	C703.614136,468.743011 703.733276,465.867645 704.012085,463.058716 
	C704.338928,459.765961 705.230286,456.599945 709.515503,456.707275 
	C713.805542,456.814789 715.160706,459.634735 715.223938,463.404388 
	C715.274292,466.403320 715.360901,469.412048 715.183350,472.401703 
	C714.973816,475.930939 716.564697,477.185394 719.940308,477.015167 
	C722.425598,476.889893 724.938904,477.014709 727.422241,477.229706 
	C730.693481,477.512817 732.920227,479.450531 732.787842,482.684174 
	C732.653381,485.968597 730.632507,488.209778 726.976990,488.314667 
	C726.643860,488.324219 726.310181,488.319977 725.977234,488.332336 
	C715.180908,488.733429 715.164001,488.733643 715.167053,499.781342 
	C715.173340,522.113892 715.313110,544.447388 715.124512,566.778137 
	C715.085815,571.358276 716.418579,572.795654 721.059814,572.743042 
	C749.386169,572.422363 777.716309,572.455933 806.043396,572.182068 
	C811.347656,572.130859 814.148560,573.652344 815.977905,579.202148 
	C827.805420,615.085144 840.090881,650.817322 852.243774,686.592957 
	C855.240601,695.414978 855.270325,695.381470 846.131714,695.398010 
	C834.389343,695.419312 835.057678,694.011841 835.483093,706.078125 
	C836.693481,740.406433 835.135986,774.722046 835.402588,809.042908 
	C835.465637,817.167847 835.411926,825.293762 836.132874,833.742554 
	C841.701965,829.663269 847.375183,827.365417 853.642273,826.146667 
	C869.575012,823.048157 886.184509,836.144531 886.308167,852.433472 
	C886.349487,857.881592 886.762451,862.345947 891.341187,866.564453 
	C896.852905,871.642334 896.484802,880.634644 892.008911,887.353577 
	C891.191406,888.580872 890.227783,889.710754 889.292908,890.936218 
	C890.622009,892.302307 892.205139,891.763367 893.596252,891.765930 
	C904.762268,891.786499 915.928528,891.728699 927.094666,891.690308 
	C929.437195,891.682190 931.804504,891.645386 933.917297,892.838562 
	C936.732544,894.428467 938.735107,896.733337 937.898621,900.127380 
	C937.125732,903.263123 935.080811,905.384094 931.466431,905.306946 
	C929.634338,905.267822 927.800293,905.331909 925.967102,905.331909 
	C667.144714,905.335815 408.322357,905.338074 149.000000,905.340820 
M585.499390,506.347015 
	C532.510681,506.345093 479.522003,506.343781 426.533295,506.340546 
	C418.913605,506.340057 418.384369,506.879974 418.386688,514.633545 
	C418.399139,556.124695 418.419769,597.615906 418.416718,639.107056 
	C418.411865,704.926575 418.437042,770.746277 418.279663,836.565430 
	C418.268250,841.345947 419.557831,842.994019 424.437012,842.780823 
	C432.919342,842.410217 441.429077,842.660950 449.927307,842.661377 
	C460.572510,842.661804 460.602295,842.666199 460.605011,832.082886 
	C460.612823,801.422791 460.680420,770.762146 460.496490,740.103088 
	C460.467865,735.335388 461.890350,733.726807 466.731720,733.829468 
	C478.555817,734.080444 490.390808,733.806641 502.221466,733.762146 
	C509.809174,733.733582 510.160248,734.117554 509.881805,741.552490 
	C508.677948,773.698730 509.614899,805.857300 509.359192,838.009094 
	C509.344025,839.912476 508.886047,842.473877 511.870483,842.535217 
	C515.257996,842.604797 514.620850,839.796082 514.620117,837.765015 
	C514.608398,804.772705 514.614075,771.779968 514.415466,738.788574 
	C514.393127,735.072998 515.355896,733.760071 519.116760,733.801331 
	C530.778870,733.929382 542.443909,733.769470 554.107849,733.741943 
	C564.289429,733.717957 563.367188,732.927795 563.381775,742.758850 
	C563.427673,773.752197 563.403748,804.745667 563.418701,835.739075 
	C563.422058,842.679810 563.444397,842.680847 570.139526,842.683228 
	C578.971008,842.686340 587.802551,842.673279 596.633972,842.693542 
	C604.914856,842.712585 604.888428,842.727783 604.888489,834.658875 
	C604.888916,774.504944 604.881653,714.351013 604.915039,654.197083 
	C604.941650,606.374695 604.984802,558.552124 605.153564,510.730103 
	C605.166504,507.069183 603.811401,506.132599 600.493958,506.270905 
	C595.835999,506.465210 591.164551,506.338226 585.499390,506.347015 
M617.473694,840.799805 
	C620.416870,844.658936 624.574951,842.572571 628.093445,842.657776 
	C641.455505,842.981445 641.563171,842.803589 641.838867,856.175293 
	C641.918945,860.056702 642.925659,861.866211 647.244568,861.822998 
	C665.401794,861.641052 683.563049,861.644531 701.720276,861.832397 
	C706.105103,861.877686 707.082397,859.974365 707.011230,856.113953 
	C706.842468,846.954163 706.918213,837.789368 706.936707,828.626648 
	C707.038940,777.816833 707.128784,727.006836 707.335388,676.197449 
	C707.346008,673.589539 706.129456,672.274963 704.367981,670.894165 
	C677.760559,650.037842 651.183716,629.142395 624.547729,608.322632 
	C622.808899,606.963440 621.234131,604.960266 617.368225,605.336304 
	C617.368225,683.514648 617.368225,761.724182 617.473694,840.799805 
M356.341980,641.869385 
	C344.123871,651.645203 331.950500,661.477905 319.650452,671.149475 
	C317.150391,673.115295 316.242828,675.295898 316.313782,678.397766 
	C316.488647,686.044739 316.063843,693.714722 316.457458,701.345642 
	C317.565155,722.822510 316.997345,744.306946 316.979248,765.784241 
	C316.954010,795.757812 317.657562,825.739014 316.410339,855.705933 
	C316.282593,858.775269 315.989075,861.778259 320.701263,861.759460 
	C339.688538,861.683777 358.676758,861.762512 377.664124,861.867615 
	C380.894623,861.885498 382.108551,860.504456 382.078918,857.358582 
	C382.046021,853.869202 382.693298,850.348145 382.408051,846.893433 
	C382.111755,843.305359 383.689087,842.582092 386.732117,842.681274 
	C390.892059,842.816956 395.059082,842.734253 399.223083,842.743469 
	C405.983215,842.758362 405.958771,842.757812 405.957825,836.192566 
	C405.947174,761.074524 405.949188,685.956482 405.912994,610.838440 
	C405.912079,608.943237 406.596893,606.860657 404.366333,604.405334 
	C388.543396,616.754944 372.729095,629.097778 356.341980,641.869385 
M823.578369,816.328735 
	C823.430298,809.170349 823.131409,802.011353 823.161438,794.853699 
	C823.266907,769.710205 823.496033,744.567322 823.653931,719.424011 
	C823.694275,712.996094 823.275696,712.438354 816.997253,712.425171 
	C787.178406,712.362427 757.359314,712.432007 727.540588,712.351257 
	C722.972046,712.338867 720.696899,714.230286 720.638123,718.804810 
	C720.618896,720.300964 720.398560,721.795410 720.397766,723.290771 
	C720.372192,772.272156 720.400818,821.253601 720.280273,870.234680 
	C720.270142,874.376038 721.635620,875.796570 725.761047,875.741211 
	C740.086548,875.549072 754.415833,875.629578 768.743652,875.618469 
	C779.905945,875.609802 791.068237,875.596191 802.230408,875.632385 
	C806.335510,875.645752 809.291443,874.662964 809.766663,869.738159 
	C810.113586,866.143005 812.825928,863.932678 816.020020,862.512512 
	C821.385925,860.126892 827.845642,861.867981 832.854126,866.851379 
	C834.565857,868.554443 835.671692,870.912598 838.117981,872.201233 
	C838.196472,866.639709 834.844055,861.979370 828.076599,859.347900 
	C824.403076,857.919495 823.417603,855.844543 823.576294,852.228516 
	C824.087402,840.583923 822.603821,828.932495 823.578369,816.328735 
M560.443542,345.882996 
	C544.950867,345.828552 529.452087,346.029022 513.966980,345.658813 
	C491.821960,345.129395 469.692413,346.165192 447.554749,345.899750 
	C443.832916,345.855133 442.252838,347.438019 442.267334,351.342010 
	C442.388123,383.829346 442.402740,416.317261 442.337860,448.804810 
	C442.330475,452.486755 443.682404,453.754028 447.337189,453.747101 
	C490.154205,453.666138 532.971497,453.664978 575.788452,453.748047 
	C579.482056,453.755219 580.728760,452.431305 580.719360,448.773804 
	C580.635376,416.119690 580.619446,383.464966 580.771118,350.811279 
	C580.790283,346.686005 578.847900,345.458405 575.398499,345.481049 
	C570.739075,345.511658 566.080933,345.740662 560.443542,345.882996 
M414.500000,878.246704 
	C399.500488,878.240723 384.500977,878.222595 369.501526,878.246338 
	C367.886139,878.248901 365.693817,877.594849 364.870544,879.255249 
	C363.343109,882.335693 363.663940,885.861023 364.549164,889.020020 
	C365.325653,891.791016 368.209473,890.699463 370.215759,890.700317 
	C453.046753,890.736450 535.877747,890.720703 618.708801,890.720764 
	C630.541687,890.720764 642.374573,890.795044 654.207336,890.765503 
	C656.107483,890.760742 658.350891,891.309326 659.421265,888.872620 
	C662.046265,882.896606 658.975952,878.146912 652.493103,878.149597 
	C573.495422,878.182068 494.497711,878.214905 414.500000,878.246704 
M445.500336,487.714722 
	C494.286469,487.728668 543.072571,487.741455 591.858704,487.757751 
	C598.624329,487.760010 598.628540,487.767944 598.657471,481.247650 
	C598.670044,478.417084 598.669434,475.586456 598.659973,472.755890 
	C598.638000,466.169342 598.634338,466.167908 592.037842,466.027985 
	C591.205627,466.010315 590.372864,466.020844 589.540405,466.011932 
	C544.591125,465.531403 499.636780,466.491638 454.687622,465.490021 
	C446.544434,465.308563 438.385529,465.973480 430.232513,466.023865 
	C426.835236,466.044861 425.399048,467.375427 425.455200,470.736450 
	C425.530090,475.217041 425.471619,479.701752 425.373749,484.182587 
	C425.317291,486.767914 426.534180,487.740601 429.016022,487.712280 
	C434.176910,487.653320 439.339081,487.706757 445.500336,487.714722 
M414.501099,866.642639 
	C483.957886,866.646179 553.414734,866.620972 622.871338,866.723755 
	C627.105103,866.730042 628.836487,865.594055 628.786499,861.097595 
	C628.740234,856.938232 627.693481,854.681519 623.176331,855.151306 
	C622.187988,855.254089 621.179199,855.157410 620.179871,855.157654 
	C551.056396,855.177795 481.932953,855.198303 412.809479,855.218811 
	C408.312500,855.220154 403.815338,855.249939 399.318634,855.215210 
	C394.524261,855.178101 395.433899,858.668945 395.284180,861.571594 
	C395.127716,864.604919 395.645050,866.819519 399.512543,866.670837 
	C404.169220,866.491821 408.838379,866.637451 414.501099,866.642639 
M319.811493,637.338013 
	C315.742676,640.509888 311.655212,643.658264 307.609222,646.859009 
	C300.820618,652.229370 294.054016,657.627625 287.289001,663.027771 
	C285.962494,664.086731 284.490112,665.200256 285.957062,667.123596 
	C287.474518,669.113220 288.877777,667.728455 290.233124,666.811096 
	C290.920654,666.345642 291.549011,665.792664 292.204407,665.279724 
	C304.790314,655.430725 317.380493,645.587158 329.961243,635.731628 
	C354.071655,616.843994 378.183167,597.957764 402.272766,579.043640 
	C404.414917,577.361694 407.110199,575.832642 405.493134,571.368103 
	C376.142242,592.403870 348.696930,615.233459 319.811493,637.338013 
M632.796204,581.747620 
	C627.981201,578.029480 623.349854,574.046387 617.930664,570.950439 
	C616.636475,573.778198 617.757080,575.514587 619.566345,576.952271 
	C628.819275,584.305115 638.052063,591.684387 647.372131,598.951477 
	C666.533875,613.892334 685.751038,628.762146 704.936646,643.672485 
	C714.791565,651.331421 724.614563,659.031555 734.488953,666.665283 
	C735.720154,667.617126 737.129456,669.228394 738.767029,667.309814 
	C740.414490,665.379700 738.614563,664.245972 737.428223,663.230408 
	C735.026245,661.174255 732.493896,659.269226 729.996216,657.326355 
	C697.789856,632.271790 665.580017,607.221497 632.796204,581.747620 
M538.528625,787.973145 
	C538.950989,780.155334 538.950928,780.148193 531.292664,780.185486 
	C529.798279,780.192749 528.300293,780.227417 526.811035,780.342163 
	C524.526123,780.518188 524.270081,782.215454 524.398376,783.956482 
	C524.545959,785.960449 523.299988,789.124023 526.125427,789.490601 
	C530.077087,790.003296 534.321106,791.133301 538.528625,787.973145 
M495.223053,789.849487 
	C498.084991,789.954834 499.050568,788.263489 498.963898,785.745422 
	C498.898346,783.840820 499.656525,781.257385 497.197144,780.552124 
	C493.668060,779.540039 489.437317,778.933350 486.522339,780.896851 
	C483.837646,782.705322 485.116730,786.568665 485.765381,789.866699 
	C488.778595,789.866699 491.569733,789.866699 495.223053,789.849487 
z"/>
<path fill="#000000" opacity="1.000000" stroke="none" 
	d="
M292.547607,797.647217 
	C285.815033,797.604492 279.512817,797.427124 273.209351,797.336121 
	C270.674988,797.299561 269.701660,796.042114 269.632904,793.622681 
	C269.411163,785.822510 269.106415,778.027710 269.636139,770.224609 
	C269.779907,768.106262 270.367737,766.784912 272.775299,766.676331 
	C278.578156,766.414795 284.375519,766.029907 290.174591,765.686218 
	C293.722931,765.475952 295.332520,767.047668 295.275879,770.685791 
	C295.159515,778.163391 295.247437,785.644043 295.223083,793.123352 
	C295.217133,794.948059 295.350067,796.898743 292.547607,797.647217 
z"/>
<path fill="#000000" opacity="1.000000" stroke="none" 
	d="
M239.680130,784.983032 
	C239.684280,780.003113 239.863464,775.511047 239.646317,771.038147 
	C239.452667,767.049255 241.196884,765.746460 244.977692,765.912659 
	C250.117462,766.138428 255.272919,766.141174 260.418488,766.053772 
	C263.919128,765.994324 265.552124,767.217285 265.440430,770.986816 
	C265.229065,778.121521 265.236115,785.269836 265.414703,792.405884 
	C265.504150,795.980347 264.399200,797.543518 260.600250,797.362610 
	C255.464539,797.118164 250.298187,797.141174 245.162292,797.397034 
	C241.072968,797.600708 239.301971,796.086731 239.660385,791.952759 
	C239.846130,789.810364 239.686371,787.637939 239.680130,784.983032 
z"/>
<path fill="#000000" opacity="1.000000" stroke="none" 
	d="
M265.388428,741.007751 
	C265.382446,746.982666 265.264465,752.461914 265.408020,757.934387 
	C265.492767,761.165161 264.177338,762.375549 261.001801,762.296753 
	C255.362854,762.156860 249.717987,762.228638 244.075821,762.257507 
	C241.610687,762.270142 239.771500,761.685486 239.928314,758.686340 
	C240.685654,744.203430 248.578873,732.993469 261.937805,726.944458 
	C262.633057,726.629700 263.520874,726.740173 264.776642,726.602478 
	C265.810852,731.338013 265.167480,735.956665 265.388428,741.007751 
z"/>
<path fill="#000000" opacity="1.000000" stroke="none" 
	d="
M280.930603,762.303345 
	C268.155579,762.091797 269.761627,764.027527 269.629395,751.449036 
	C269.546234,743.538513 269.613892,735.626343 269.613892,727.751404 
	C282.776520,727.453125 294.703827,744.084473 294.447327,761.674011 
	C290.241028,763.512085 285.744049,761.774536 280.930603,762.303345 
z"/>
<path fill="#000000" opacity="1.000000" stroke="none" 
	d="
M286.491455,801.606079 
	C294.464600,800.443848 295.076721,800.914124 295.169678,808.352783 
	C295.231903,813.335693 295.114227,818.320618 295.163055,823.303833 
	C295.196808,826.748413 293.897522,828.508545 290.151489,828.389038 
	C284.509125,828.209045 278.855652,828.306030 273.208282,828.383850 
	C270.490540,828.421326 269.349792,827.399963 269.452393,824.537354 
	C269.672394,818.396729 269.717957,812.244995 269.636688,806.100403 
	C269.594208,802.887695 270.921448,801.608826 274.081085,801.691956 
	C278.064667,801.796631 282.054291,801.671875 286.491455,801.606079 
z"/>
<path fill="#000000" opacity="1.000000" stroke="none" 
	d="
M262.728577,801.863586 
	C265.378113,802.461731 265.324432,804.230286 265.328949,805.894287 
	C265.345673,812.046021 265.235260,818.199280 265.340729,824.349060 
	C265.393768,827.443054 263.931885,828.400757 261.078278,828.352051 
	C255.427002,828.255432 249.771072,828.231506 244.120773,828.351868 
	C240.866119,828.421204 239.685593,826.933960 239.724899,823.838074 
	C239.798752,818.019958 239.826767,812.196899 239.662735,806.381897 
	C239.567169,802.993896 240.811569,801.550171 244.303482,801.663208 
	C250.283264,801.856750 256.272247,801.765991 262.728577,801.863586 
z"/>
<path fill="#000000" opacity="1.000000" stroke="none" 
	d="
M469.132935,729.360718 
	C466.519318,729.237488 464.334076,729.679504 461.802185,728.661743 
	C460.982819,722.575134 462.812012,716.717590 464.645569,710.941284 
	C471.281158,690.036560 482.653595,672.463074 501.184875,660.103821 
	C503.448639,658.594055 506.047607,655.867249 508.704865,657.438416 
	C511.237915,658.936279 509.532928,662.317322 509.525513,664.891357 
	C509.468903,684.531311 509.426758,704.171265 509.381073,723.811218 
	C509.377289,725.433289 509.380585,727.055359 509.380585,729.360413 
	C495.794922,729.360413 482.702759,729.360413 469.132935,729.360718 
z"/>
<path fill="#000000" opacity="1.000000" stroke="none" 
	d="
M528.115479,663.829346 
	C547.234375,679.277588 557.922668,699.225464 562.146484,722.817932 
	C563.266235,729.072388 562.802429,729.347656 556.554932,729.345520 
	C544.577209,729.341309 532.596924,729.215210 520.622986,729.431030 
	C516.264648,729.509583 514.541260,728.383667 514.539307,723.603577 
	C514.530396,702.318237 515.198608,681.025574 514.221008,659.744202 
	C514.184937,658.958984 514.537842,658.156006 514.801636,656.934509 
	C520.255859,657.249146 523.825623,660.882202 528.115479,663.829346 
z"/>
<path fill="#000000" opacity="1.000000" stroke="none" 
	d="
M541.759644,594.536438 
	C536.284973,603.528992 528.841736,609.180115 518.854004,611.486206 
	C515.280701,612.311279 513.923401,611.137878 513.953369,607.579956 
	C514.020874,599.582275 513.992676,591.583008 513.918640,583.585205 
	C513.890137,580.501404 515.151245,578.911133 518.338196,578.932190 
	C526.003418,578.982910 533.668945,579.006775 541.334290,578.989380 
	C545.128235,578.980774 546.376831,580.635071 545.406433,584.347900 
	C544.518860,587.743652 543.520264,591.071777 541.759644,594.536438 
z"/>
<path fill="#000000" opacity="1.000000" stroke="none" 
	d="
M478.154907,584.423950 
	C476.946320,580.168579 478.729034,578.910461 482.358734,578.953003 
	C490.002106,579.042664 497.648346,579.063965 505.290955,578.949829 
	C508.484680,578.902100 509.983551,580.270203 509.824524,583.371948 
	C509.390503,591.837036 509.119171,600.296265 509.681274,608.770020 
	C509.863525,611.517395 508.252258,612.041809 505.779755,611.636230 
	C495.412781,609.935730 487.768158,604.382141 482.463348,595.445740 
	C480.500061,592.138428 479.109283,588.589844 478.154907,584.423950 
z"/>
<path fill="#000000" opacity="1.000000" stroke="none" 
	d="
M502.820007,575.348267 
	C495.520203,575.343018 488.695557,575.252625 481.874420,575.368652 
	C478.495636,575.426086 477.476044,573.962646 477.904938,570.773499 
	C479.640930,557.865723 491.173035,545.442017 503.927277,542.860229 
	C509.030182,541.827332 509.923676,542.426025 509.893646,547.616028 
	C509.846497,555.765137 509.515137,563.912415 509.449158,572.061707 
	C509.407898,577.157410 505.601288,574.742676 502.820007,575.348267 
z"/>
<path fill="#000000" opacity="1.000000" stroke="none" 
	d="
M514.116455,571.600342 
	C514.059021,561.849915 514.059021,552.560791 514.059021,543.497437 
	C526.519470,540.728271 546.421387,556.147034 545.479553,574.982117 
	C535.934448,575.665710 526.324158,575.345215 516.721680,575.219421 
	C514.753845,575.193665 514.483582,573.553406 514.116455,571.600342 
z"/>
<path fill="#000000" opacity="1.000000" stroke="none" 
	d="
M654.558472,710.773132 
	C661.962769,707.610413 669.379944,709.154053 676.718994,709.437805 
	C678.793640,709.518005 679.134155,711.433716 679.141602,713.190002 
	C679.176819,721.485779 679.152344,729.781982 679.237671,738.077087 
	C679.265991,740.832825 677.934570,742.042419 675.335449,742.061279 
	C669.529541,742.103455 663.723267,742.090210 657.917358,742.133301 
	C655.104736,742.154175 654.027405,740.424866 654.035095,738.011292 
	C654.063599,729.064758 653.573242,720.109863 654.558472,710.773132 
z"/>
<path fill="#000000" opacity="1.000000" stroke="none" 
	d="
M650.305786,718.089111 
	C650.305115,724.907043 650.211243,731.240967 650.342529,737.570251 
	C650.407410,740.698975 649.323669,742.182495 646.037109,742.130066 
	C641.207886,742.053101 636.374451,742.218567 631.543152,742.302734 
	C627.738953,742.368896 625.613220,740.919983 625.714844,736.718201 
	C625.892151,729.390076 625.918457,722.054749 625.819641,714.724915 
	C625.757874,710.147827 628.052551,708.443115 632.306519,708.622314 
	C635.465210,708.755371 638.624268,708.909912 641.784729,708.968750 
	C650.264893,709.126831 650.265259,709.108459 650.305786,718.089111 
z"/>
<path fill="#000000" opacity="1.000000" stroke="none" 
	d="
M653.938232,750.395264 
	C653.937256,747.118774 655.676086,746.095337 658.137817,746.139282 
	C664.121216,746.246216 670.101685,746.513367 676.084839,746.643921 
	C678.510620,746.696899 679.211182,748.064453 679.206360,750.191650 
	C679.189270,757.679382 679.162598,765.167297 679.204163,772.654785 
	C679.219971,775.512756 677.691162,776.393250 675.105835,776.368958 
	C669.615112,776.317322 664.120728,776.250488 658.633423,776.397827 
	C655.621155,776.478699 654.373291,775.082764 654.315918,772.296326 
	C654.168762,765.148926 654.052551,758.000854 653.938232,750.395264 
z"/>
<path fill="#000000" opacity="1.000000" stroke="none" 
	d="
M630.330933,745.804443 
	C637.072815,746.069519 643.406799,745.485229 650.204773,747.063416 
	C650.204773,755.948059 650.225342,764.858887 650.188538,773.769470 
	C650.180603,775.694824 648.813904,776.258240 647.154358,776.297852 
	C641.352478,776.436523 635.549194,776.523865 629.748352,776.694519 
	C627.010559,776.774963 625.808533,775.514587 625.828064,772.814880 
	C625.883301,765.177734 625.872375,757.540039 625.911682,749.902771 
	C625.924988,747.314148 627.198486,745.882446 630.330933,745.804443 
z"/>
<path fill="#000000" opacity="1.000000" stroke="none" 
	d="
M679.203857,798.934265 
	C679.272888,808.798523 679.273071,808.810303 669.618896,808.952820 
	C665.964539,809.006775 662.308533,808.954285 658.654663,809.022400 
	C655.831543,809.075012 654.196228,807.817871 654.162170,804.954956 
	C654.081116,798.146362 654.056213,791.336365 654.095642,784.527405 
	C654.110657,781.949890 655.426514,780.635498 658.163696,780.675293 
	C663.811462,780.757568 669.462280,780.754944 675.109802,780.663086 
	C678.184998,780.613037 679.196167,782.184082 679.170044,784.987061 
	C679.128174,789.472595 679.183777,793.959045 679.203857,798.934265 
z"/>
<path fill="#000000" opacity="1.000000" stroke="none" 
	d="
M640.152832,780.650269 
	C651.755127,780.708984 650.176575,779.854431 650.294373,790.166199 
	C650.347473,794.813782 650.142273,799.469971 650.357483,804.108215 
	C650.519165,807.592896 648.996155,808.931091 645.716858,808.928040 
	C640.571350,808.923279 635.425598,808.987244 630.280212,809.045959 
	C627.214172,809.080872 625.774536,807.781128 625.852051,804.535706 
	C625.998779,798.397278 626.071106,792.245361 625.824097,786.113098 
	C625.631348,781.327271 628.252991,780.054749 632.254639,780.140564 
	C634.732849,780.193665 637.206299,780.470947 640.152832,780.650269 
z"/>
<path fill="#000000" opacity="1.000000" stroke="none" 
	d="
M675.674561,705.240234 
	C669.724243,705.298157 664.237427,705.269714 658.751709,705.334900 
	C656.331787,705.363586 654.455444,704.870178 654.218506,701.996277 
	C653.441162,692.567566 655.523193,683.219360 654.015320,673.551453 
	C658.040955,673.394653 660.237427,675.168030 662.520508,676.718811 
	C670.943787,682.440247 675.746643,690.534302 677.899536,700.326965 
	C678.318909,702.234802 678.984924,704.393005 675.674561,705.240234 
z"/>
<path fill="#000000" opacity="1.000000" stroke="none" 
	d="
M633.699097,705.437744 
	C626.821350,705.881714 626.063171,705.075623 627.452271,698.966187 
	C629.920654,688.110229 636.350464,680.203979 645.800232,674.584412 
	C646.968628,673.889526 648.142822,673.275757 650.158569,674.244568 
	C650.158569,683.525452 650.192017,693.114929 650.133667,702.703979 
	C650.120056,704.936401 648.398682,705.280518 646.611694,705.298035 
	C642.452393,705.338928 638.292847,705.359497 633.699097,705.437744 
z"/>
<path fill="#000000" opacity="1.000000" stroke="none" 
	d="
M360.362823,709.547363 
	C369.084778,709.719666 369.072266,709.719604 369.037384,718.198792 
	C369.012085,724.351807 368.936249,730.506653 369.055176,736.657349 
	C369.125824,740.311523 367.918854,742.284607 363.912781,742.170715 
	C358.762543,742.024231 353.601196,742.086792 348.449646,742.234558 
	C345.227081,742.326904 343.921295,740.882263 343.956696,737.776001 
	C344.043884,730.127197 344.125580,722.477234 344.082214,714.828430 
	C344.057220,710.414612 345.966431,708.434021 350.452515,708.906799 
	C353.589478,709.237427 356.752106,709.324097 360.362823,709.547363 
z"/>
<path fill="#000000" opacity="1.000000" stroke="none" 
	d="
M373.158508,710.880615 
	C380.256592,708.860474 387.348267,709.431885 394.363831,709.048889 
	C396.653961,708.923889 397.128448,711.106750 397.123566,713.047058 
	C397.102295,721.509888 397.036957,729.972534 396.992798,738.435303 
	C396.978821,741.110901 395.685638,742.321167 392.974762,742.265808 
	C387.500031,742.153992 382.022736,742.113831 376.546875,742.135803 
	C373.763947,742.146973 372.702240,740.775330 372.734985,738.136108 
	C372.845947,729.181335 372.908569,720.225952 373.158508,710.880615 
z"/>
<path fill="#000000" opacity="1.000000" stroke="none" 
	d="
M362.854370,776.373657 
	C357.708191,776.371277 353.039398,776.262634 348.377380,776.393982 
	C345.408051,776.477600 344.048218,775.201172 344.039337,772.312988 
	C344.017334,765.148071 344.020477,757.982910 343.963135,750.818237 
	C343.937134,747.566223 345.589050,746.508850 348.669434,746.585327 
	C354.165100,746.721680 359.670990,746.749878 365.164154,746.568298 
	C368.236237,746.466736 369.296661,747.631165 369.220215,750.638550 
	C369.050903,757.300415 368.975616,763.971313 369.128510,770.632385 
	C369.224854,774.830688 367.781860,776.993530 362.854370,776.373657 
z"/>
<path fill="#000000" opacity="1.000000" stroke="none" 
	d="
M397.242737,753.169189 
	C397.222229,759.803284 397.075256,765.962463 397.225281,772.114380 
	C397.308807,775.539551 395.837097,777.084290 392.559723,776.991699 
	C387.087372,776.837219 381.618896,776.537476 376.146210,776.405518 
	C373.531036,776.342468 372.715576,774.978210 372.725494,772.594482 
	C372.756592,765.107483 372.783081,757.619263 372.673859,750.133484 
	C372.628174,747.000183 374.181213,745.887146 376.997131,746.226868 
	C381.327911,746.749390 385.598846,746.481384 389.921570,745.977905 
	C396.038879,745.265442 397.017303,746.311707 397.242737,753.169189 
z"/>
<path fill="#000000" opacity="1.000000" stroke="none" 
	d="
M369.008972,793.013611 
	C368.985779,796.992737 368.892029,800.479736 368.974640,803.962524 
	C369.051666,807.208862 367.801178,808.943970 364.351868,808.906738 
	C359.208191,808.851074 354.062744,808.974915 348.918488,808.946289 
	C346.608856,808.933472 344.656891,808.468994 344.609619,805.423462 
	C344.506592,798.790039 344.251801,792.158997 344.054382,785.527039 
	C343.949432,782.000488 345.495392,780.461487 349.165527,780.631592 
	C353.968079,780.854126 358.797852,780.857605 363.599365,780.620361 
	C367.651733,780.420166 369.504700,781.880981 369.117767,786.050171 
	C368.919098,788.191406 369.039307,790.362183 369.008972,793.013611 
z"/>
<path fill="#000000" opacity="1.000000" stroke="none" 
	d="
M396.854889,782.651489 
	C397.012421,790.061462 397.001495,797.043152 397.127899,804.022339 
	C397.191162,807.515320 395.878479,809.269714 392.161530,809.136169 
	C387.179169,808.957092 382.187744,809.012573 377.200165,809.005127 
	C374.140167,809.000610 372.681976,807.683289 372.735107,804.461426 
	C372.841980,797.978699 372.722504,791.492371 372.713470,785.007568 
	C372.710571,782.916809 372.857788,780.878601 375.682831,780.767700 
	C381.486328,780.539978 387.289368,780.274414 393.095306,780.152832 
	C394.580383,780.121765 396.107513,780.514526 396.854889,782.651489 
z"/>
<path fill="#000000" opacity="1.000000" stroke="none" 
	d="
M355.266602,681.262695 
	C359.321533,677.911804 362.762787,674.192871 367.900391,673.509705 
	C369.684509,674.971680 369.123505,676.751587 369.122925,678.325439 
	C369.120239,685.640503 368.975037,692.955627 368.985199,700.270569 
	C368.989990,703.724243 367.751740,705.496033 363.979126,705.335510 
	C359.166626,705.130737 354.335876,705.207397 349.517548,705.334961 
	C345.832092,705.432556 344.416931,704.257935 345.253845,700.287415 
	C346.776031,693.065552 350.136932,686.927429 355.266602,681.262695 
z"/>
<path fill="#000000" opacity="1.000000" stroke="none" 
	d="
M372.695129,677.437134 
	C372.546112,673.217102 374.276978,672.565247 377.281586,674.325928 
	C387.642792,680.397705 393.908905,689.392273 396.217194,701.149353 
	C396.844696,704.345581 395.495178,705.805115 392.183044,705.671875 
	C387.196960,705.471375 382.203369,705.317932 377.214966,705.363892 
	C373.981781,705.393738 372.751892,703.947449 372.766052,700.848816 
	C372.801056,693.193115 372.723114,685.536987 372.695129,677.437134 
z"/>
<path fill="#000000" opacity="1.000000" stroke="none" 
	d="
M735.019348,797.850952 
	C730.282715,797.943481 728.336182,796.200378 728.605652,791.546570 
	C728.979614,785.086304 728.966248,778.575745 728.630859,772.112000 
	C728.401306,767.688293 730.501770,765.975708 734.357544,765.893616 
	C739.669250,765.780518 744.987366,765.993347 750.303040,766.036255 
	C753.250183,766.060059 754.349731,767.516479 754.303467,770.425293 
	C754.184631,777.902161 754.169556,785.383179 754.285950,792.859924 
	C754.335754,796.057739 753.060913,797.306946 749.878540,797.318665 
	C745.070435,797.336365 740.234680,796.933777 735.019348,797.850952 
z"/>
<path fill="#000000" opacity="1.000000" stroke="none" 
	d="
M783.406311,778.020020 
	C783.380249,783.503906 783.278259,788.493347 783.359192,793.479858 
	C783.403687,796.222107 782.314148,797.379089 779.537415,797.327881 
	C774.052246,797.226685 768.561646,797.212891 763.077515,797.341675 
	C759.951965,797.415100 758.540039,796.283813 758.599182,793.014160 
	C758.734497,785.533936 758.767029,778.047729 758.618469,770.568359 
	C758.553528,767.301880 759.956482,766.059631 763.028076,766.073120 
	C768.015930,766.094910 773.010193,766.180664 777.990295,765.969543 
	C782.085144,765.795898 783.807800,767.444641 783.416443,771.541687 
	C783.227661,773.518188 783.398621,775.529114 783.406311,778.020020 
z"/>
<path fill="#000000" opacity="1.000000" stroke="none" 
	d="
M732.191772,745.441772 
	C736.496277,735.973938 743.461121,730.133301 752.419434,726.882324 
	C754.612793,728.238831 754.273926,729.866028 754.279724,731.290466 
	C754.315613,740.103882 754.218323,748.918274 754.317810,757.730591 
	C754.352234,760.778809 753.489746,762.380554 750.099792,762.299500 
	C744.450378,762.164307 738.792480,762.254578 733.141113,762.381104 
	C729.868896,762.454285 728.612061,761.187927 729.174072,757.854065 
	C729.863831,753.762329 730.237488,749.615662 732.191772,745.441772 
z"/>
<path fill="#000000" opacity="1.000000" stroke="none" 
	d="
M730.709351,801.828857 
	C737.592285,801.732849 744.061157,801.783997 750.529114,801.731812 
	C753.345337,801.709106 754.319824,803.112183 754.293518,805.744629 
	C754.232056,811.889832 754.201721,818.037048 754.294312,824.181396 
	C754.339478,827.177734 753.015564,828.355042 750.096497,828.315674 
	C744.450256,828.239563 738.802124,828.326904 733.154907,828.306702 
	C731.058655,828.299194 728.916687,828.013611 728.888367,825.287598 
	C728.814453,818.150330 728.862610,811.010925 728.978699,803.874207 
	C728.989319,803.220581 729.836304,802.580505 730.709351,801.828857 
z"/>
<path fill="#000000" opacity="1.000000" stroke="none" 
	d="
M758.619507,733.472900 
	C758.684631,731.095093 758.145691,729.083557 759.263489,727.020935 
	C763.978027,727.138428 767.369019,729.809814 770.666748,732.518921 
	C778.395691,738.868469 782.196228,747.277893 783.306030,757.076904 
	C783.732422,760.841797 782.502747,762.573853 778.409668,762.342529 
	C773.276733,762.052429 768.113342,762.154968 762.967957,762.282471 
	C759.737793,762.362549 758.562927,760.997375 758.608154,757.832703 
	C758.722229,749.862000 758.635925,741.888428 758.619507,733.472900 
z"/>
<path fill="#000000" opacity="1.000000" stroke="none" 
	d="
M771.996704,828.372986 
	C767.395264,828.211121 763.243835,828.767212 758.721130,827.825378 
	C758.721130,820.025757 758.720154,812.411499 758.721802,804.797241 
	C758.722290,802.722412 759.840332,801.770813 761.839600,801.768066 
	C767.833679,801.760010 773.828003,801.799072 779.821716,801.754822 
	C782.794739,801.732849 783.384338,803.513977 783.368530,805.982971 
	C783.331116,811.810791 783.196594,817.645203 783.418762,823.464844 
	C783.560669,827.182007 782.107056,828.636169 778.482666,828.366028 
	C776.496399,828.218018 774.488464,828.359985 771.996704,828.372986 
z"/>
<path fill="#000000" opacity="1.000000" stroke="none" 
	d="
M479.851044,408.579132 
	C476.801239,405.970612 478.418549,402.945984 479.137238,400.622101 
	C483.114288,387.762390 491.459839,379.253235 504.888855,376.144379 
	C508.461304,375.317322 509.970825,376.688843 509.921509,380.095062 
	C509.794037,388.902832 509.574280,397.709198 509.423431,406.516693 
	C509.378662,409.129120 507.663483,409.354797 505.680511,409.306976 
	C497.206116,409.102570 488.731598,408.904022 479.851044,408.579132 
z"/>
<path fill="#000000" opacity="1.000000" stroke="none" 
	d="
M514.556396,407.252716 
	C513.446167,397.882782 514.127258,388.900085 513.945251,379.931702 
	C513.881042,376.770752 515.081238,375.491882 518.533508,376.098694 
	C531.988281,378.463562 544.028076,391.353973 545.182434,404.885590 
	C545.353943,406.896027 545.162476,408.864929 542.708374,408.911530 
	C533.755005,409.081604 524.788269,409.685150 515.852356,408.577728 
	C515.444275,408.527130 515.097534,407.981903 514.556396,407.252716 
z"/>
<path fill="#000000" opacity="1.000000" stroke="none" 
	d="
M525.550903,441.808014 
	C514.361938,446.104980 513.865784,445.773804 513.851990,434.253693 
	C513.845215,428.608124 513.970154,422.960815 513.861389,417.317627 
	C513.802734,414.276123 514.737305,412.646790 518.080322,412.692444 
	C525.883057,412.799011 533.688354,412.768738 541.492126,412.718231 
	C544.643921,412.697845 545.576477,414.094513 544.938049,417.096008 
	C542.541321,428.363800 536.608459,436.840942 525.550903,441.808014 
z"/>
<path fill="#000000" opacity="1.000000" stroke="none" 
	d="
M479.112854,419.593079 
	C477.932892,412.776489 477.932831,412.761292 484.231812,412.739166 
	C491.215912,412.714600 498.201202,412.788849 505.183807,412.681763 
	C508.015991,412.638336 509.521881,413.475067 509.494049,416.610565 
	C509.423157,424.584290 509.040131,432.561707 509.894989,440.531097 
	C510.344757,444.724213 507.431427,444.635559 504.630096,444.016632 
	C491.378815,441.088989 483.067444,432.884552 479.112854,419.593079 
z"/>
</svg>