<svg xmlns="http://www.w3.org/2000/svg" xml:space="preserve" viewBox="0 0 1024 1024"><path fill="#ffffff" d="M632 1025H416c-4-4-8-8-13-10l-9-3-57-22-19-7c-19-8-36-18-54-28-18-9-30-22-38-40-6-13-13-26-25-35-6-5-10-11-14-16l-10-17c-12-15-14-32-13-49v-40c0-2-1-5-3-6-8-6-10-15-12-24l-4-14c-4-8-5-16-5-24l1-27c1-8 1-15 4-22 2-5 2-12 0-16l-8-20c-6-16-10-33-12-51v-19c1-6 3-13 2-19-1-11 1-20 4-30 1-7 0-14-3-20-5-7-7-14-9-22l-6-30c-2-11-2-21-2-31 1-11 4-22 4-33 1-19 3-39 7-58 2-7 1-16 5-22 4-7 4-14 5-21s0-13 2-19l19-46 10-16c3-7 8-13 13-19l20-22c7-10 15-19 26-25 6-3 11-8 15-14l9-11c9-11 17-23 25-36 5-8 12-15 23-16 11-2 23-1 34 3 9 3 19 5 29 4 19-2 36-6 54-11 4-1 7-3 9-6l-2-1c-1-1-3-1-3-3s2-3 4-4l9-1c15 1 30 4 43 16 4 4 9 6 15 7 11 3 23 1 34 0 11 0 21-2 31 0l65 6c36 2 69 14 99 33l22 13c20 10 37 24 55 38 13 11 25 25 39 35 4 3 8 7 11 12 7 13 21 22 26 36l2 3c4 5 9 9 11 15 4 12 14 22 18 35l3 3c9 11 15 24 17 38v39c-1 19-2 37 2 55 3 13 4 26 3 40-4 28-5 57-10 86-5 28-8 56-9 84l-4 41-11 81c-2 17-1 35-4 52 0 6-2 12-5 17l-13 20-15 29-10 19c-10 14-21 27-34 39l-21 19c-8 9-17 18-27 25-18 13-36 25-53 40l-24 16c-7 4-16 6-24 9l-23 10c-3 2-6 3-5 8M386 205a247 247 0 0 0-109 258c7 43 49 121 67 125l1-4v-27c0-4-1-7-3-10-7-10-13-19-18-30-1-2-2-4-1-6 4 3 8 6 12 5 5 0 7-3 6-8l-3-8a216 216 0 0 1 7-182c2-4 4-8 4-12 0-2 1-4-2-5-2-1-2 1-3 3-4 4-10 4-15 7-1-4 1-6 2-9a219 219 0 0 1 327-62c2 2 5 3 4 6h-4c-3-1-6-1-8 2s0 6 2 8l11 14c19 21 34 44 45 69 4 11 8 23 15 33 1 2 2 4 4 4 2 1 4 1 4-2 1-3 1-7-3-8-4-2-4-3-3-6 3-5 3-10-1-14-3-2-4-5-4-9-1-7-3-14-9-19l-4-7c-2-8-4-15-9-21-1-2-2-4-1-6 2-1 3 1 3 2l16 24a230 230 0 0 1 18 163c-1 5-3 5-7 3-2-2-5-4-7-1-4 4-8 8-10 13l-11 26c-4 10-2 19 4 29-5 6-5 13-5 21l1 24c4 0 5-2 6-4a249 249 0 0 0 61-210c-12-69-47-125-105-165-51-36-109-49-171-41-37 4-72 16-104 37m-56 543 6 9c27 39 61 70 106 89 36 16 75 22 114 14 45-8 83-29 115-61 37-37 62-81 83-129 3-6 1-8-5-11l-37-11c-5-2-6-1-6 4-3 28-13 54-25 79 0 2-1 4-3 4-3 1-1-3-3-3-2 2-4 4-4 7 2 0 3-3 5-1 1 2 0 4-1 5-5 9-10 17-17 24-1 2-3 4-5 4-3-7 0-11 6-14 4-3 9-11 9-15h-1c-12 17-27 31-44 41-4 3-5 7-1 10 3 3 3 5 0 7l-7 6c-38 23-78 33-122 24-51-9-92-35-122-77-21-30-29-64-31-100-1-7-2-8-8-6l-35 11c-11 3-12 5-7 17v1c12 25 25 49 40 72m164-445c21-6 43-5 63 2 51 17 83 71 82 118v162c0 4 2 5 5 4 6-1 12 1 17 4l4 2c2-2 2-5 2-7a78512 78512 0 0 0-2-186c-7-39-24-72-55-97a137 137 0 0 0-198 18c-22 28-35 60-36 95-2 57-1 115-1 172 0 1 0 3 2 5l4-2c4-3 10-5 15-4 7 0 7 0 7-7V432c0-13 0-26 4-38 12-46 39-78 87-91m-56 178c-3 9-3 18-4 27-1 26 4 51 12 76 11 35 33 60 69 72h12c30-10 51-30 64-58a193 193 0 0 0 14-102c0-2 0-6-3-6s-3 3-4 5c-3 7-5 14-10 20-7 8-11 17-13 28-2 10-11 16-21 16-9 0-16-4-23-8s-14-4-21 0c-6 3-11 6-18 8-11 2-22-2-25-13-3-13-7-24-16-35v-1c-5-8-7-17-9-26-1-1 0-4-4-3m64 272 13-5c5-3 5-8 0-11l-9-3c-18-4-35-9-51-17a86 86 0 0 1-49-61l-3-27c0-5-4-9-9-10-4-2-8 0-11 5-2 3-4 7-4 11l1 24c3 28 17 50 38 68 20 17 44 26 69 32 3 0 6 1 8-3l7-3m105-38c-8 9-18 16-30 21-6 2-7 4-6 11v3c1 10-2 19-5 28v5h5l10-4c24-17 45-36 61-61 11-17 19-35 21-56 1-7-2-13 0-20l1-5c0-6-2-11-6-12-5-1-9 2-11 8l-3 12c-1 4-1 8-4 11l-8 18c-6 15-13 29-25 41m-67-358 7-10c3-5 2-7-4-9-13-5-27-6-40-2-38 11-58 38-65 76-1 1-1 4 1 5s3-1 4-2l16-16c14-9 29-15 44-20 14-5 27-11 37-22m66 63c-2-18-9-34-20-49-2-2-4-3-7-2-4 1-9 8-8 13 3 17 11 31 22 44 2 2 5 3 8 2s5-3 5-8z"/></svg>